<?xml version="1.0" encoding="UTF-8"?>
<svg xmlns="http://www.w3.org/2000/svg" xmlns:xlink="http://www.w3.org/1999/xlink" width="114px" height="71px" viewBox="0 0 114 71" version="1.1">
<g id="surface1">
<path style=" stroke:none;fill-rule:nonzero;fill:rgb(61.960784%,38.039216%,41.568627%);fill-opacity:1;" d="M 104.972656 69.613281 L 103.269531 69.613281 L 102.460938 64.734375 L 104.972656 64.734375 Z M 104.972656 69.613281 "/>
<path style=" stroke:none;fill-rule:nonzero;fill:rgb(18.431373%,18.039216%,25.490196%);fill-opacity:1;" d="M 105.40625 70.839844 L 99.917969 70.839844 L 99.917969 70.789062 C 99.917969 69.910156 100.875 69.199219 102.054688 69.199219 L 105.40625 69.199219 Z M 105.40625 70.839844 "/>
<path style=" stroke:none;fill-rule:nonzero;fill:rgb(61.960784%,38.039216%,41.568627%);fill-opacity:1;" d="M 98.449219 69.613281 L 96.746094 69.613281 L 95.933594 64.734375 L 98.449219 64.734375 Z M 98.449219 69.613281 "/>
<path style=" stroke:none;fill-rule:nonzero;fill:rgb(18.431373%,18.039216%,25.490196%);fill-opacity:1;" d="M 98.882812 70.839844 L 93.390625 70.839844 L 93.390625 70.789062 C 93.394531 69.910156 94.347656 69.199219 95.527344 69.199219 L 98.882812 69.199219 Z M 98.882812 70.839844 "/>
<path style=" stroke:none;fill-rule:nonzero;fill:rgb(24.705882%,23.921569%,33.72549%);fill-opacity:1;" d="M 24.902344 70.648438 L 24.902344 31.453125 C 24.902344 30.953125 25.449219 30.542969 26.125 30.542969 L 31.589844 30.542969 C 32.265625 30.542969 32.816406 30.953125 32.816406 31.453125 L 32.816406 70.753906 Z M 24.902344 70.648438 "/>
<path style=" stroke:none;fill-rule:nonzero;fill:rgb(24.705882%,23.921569%,33.72549%);fill-opacity:1;" d="M 42.953125 70.773438 L 42.953125 39.605469 C 42.953125 39.105469 43.5 38.695312 44.175781 38.695312 L 49.640625 38.695312 C 50.320312 38.695312 50.867188 39.105469 50.867188 39.605469 L 50.867188 70.707031 Z M 42.953125 70.773438 "/>
<path style=" stroke:none;fill-rule:nonzero;fill:rgb(24.705882%,23.921569%,33.72549%);fill-opacity:1;" d="M 10.875 33.746094 C 10.710938 33.746094 10.5625 33.671875 10.496094 33.5625 C 10.429688 33.449219 10.457031 33.320312 10.566406 33.230469 L 28.839844 18.082031 L 46.824219 25.585938 L 64.917969 2.417969 L 83.347656 13.691406 C 83.523438 13.800781 83.550781 13.996094 83.402344 14.128906 C 83.257812 14.261719 82.996094 14.28125 82.816406 14.171875 L 65.144531 3.359375 L 47.132812 26.425781 L 29.015625 18.863281 L 11.1875 33.644531 C 11.109375 33.707031 10.996094 33.746094 10.875 33.746094 Z M 10.875 33.746094 "/>
<path style=" stroke:none;fill-rule:nonzero;fill:rgb(0%,48.235294%,100%);fill-opacity:1;" d="M 14.695312 33.4375 C 14.695312 35.03125 12.953125 36.324219 10.808594 36.324219 C 8.660156 36.324219 6.917969 35.03125 6.917969 33.4375 C 6.917969 31.839844 8.660156 30.546875 10.808594 30.546875 C 12.953125 30.546875 14.695312 31.839844 14.695312 33.4375 Z M 14.695312 33.4375 "/>
<path style=" stroke:none;fill-rule:nonzero;fill:rgb(80%,80%,80%);fill-opacity:1;" d="M 32.746094 18.472656 C 32.746094 20.066406 31.003906 21.363281 28.859375 21.363281 C 26.710938 21.363281 24.96875 20.066406 24.96875 18.472656 C 24.96875 16.875 26.710938 15.582031 28.859375 15.582031 C 31.003906 15.582031 32.746094 16.875 32.746094 18.472656 Z M 32.746094 18.472656 "/>
<path style=" stroke:none;fill-rule:nonzero;fill:rgb(90.196078%,90.196078%,90.196078%);fill-opacity:1;" d="M 50.796875 26.003906 C 50.796875 27.601562 49.058594 28.894531 46.910156 28.894531 C 44.761719 28.894531 43.023438 27.601562 43.023438 26.003906 C 43.023438 24.410156 44.761719 23.117188 46.910156 23.117188 C 49.058594 23.117188 50.796875 24.410156 50.796875 26.003906 Z M 50.796875 26.003906 "/>
<path style=" stroke:none;fill-rule:nonzero;fill:rgb(0%,48.235294%,100%);fill-opacity:1;" d="M 68.847656 2.890625 C 68.847656 4.484375 67.109375 5.777344 64.960938 5.777344 C 62.8125 5.777344 61.074219 4.484375 61.074219 2.890625 C 61.074219 1.292969 62.8125 0 64.960938 0 C 67.109375 0 68.847656 1.292969 68.847656 2.890625 Z M 68.847656 2.890625 "/>
<path style=" stroke:none;fill-rule:nonzero;fill:rgb(0%,48.235294%,100%);fill-opacity:1;" d="M 103.5625 24.410156 C 103.5625 26.003906 101.820312 27.300781 99.675781 27.300781 C 97.527344 27.300781 95.785156 26.003906 95.785156 24.410156 C 95.785156 22.8125 97.527344 21.519531 99.675781 21.519531 C 101.820312 21.519531 103.5625 22.8125 103.5625 24.410156 Z M 103.5625 24.410156 "/>
<path style=" stroke:none;fill-rule:nonzero;fill:rgb(24.705882%,23.921569%,33.72549%);fill-opacity:1;" d="M 98.300781 46.917969 C 99.753906 47.050781 103.476562 46.0625 103.679688 47.5625 C 105.59375 51.753906 105.535156 67.816406 105.535156 67.816406 L 102.621094 67.921875 C 102.621094 67.921875 100.289062 55.15625 99.1875 52.425781 C 98.636719 55.746094 98.734375 68.4375 98.734375 68.4375 L 96.09375 68.539062 C 96.09375 68.539062 93.726562 57.734375 93.714844 54.5625 C 93.425781 52.238281 94.132812 48.796875 93.832031 46.550781 C 95.273438 46.890625 96.792969 47.015625 98.300781 46.917969 Z M 98.300781 46.917969 "/>
<path style=" stroke:none;fill-rule:nonzero;fill:rgb(24.705882%,23.921569%,33.72549%);fill-opacity:1;" d="M 79.054688 70.632812 L 79.054688 25.457031 C 79.054688 24.878906 79.601562 24.410156 80.28125 24.410156 L 85.746094 24.410156 C 86.421875 24.410156 86.96875 24.878906 86.96875 25.457031 L 86.96875 70.753906 Z M 79.054688 70.632812 "/>
<path style=" stroke:none;fill-rule:nonzero;fill:rgb(61.960784%,38.039216%,41.568627%);fill-opacity:1;" d="M 93.351562 34.761719 C 92.765625 33.875 92.054688 33.039062 91.222656 32.269531 C 91.050781 32.117188 90.894531 31.957031 90.75 31.789062 C 90.453125 31.40625 90.363281 30.953125 90.175781 30.53125 C 89.648438 29.351562 88.332031 28.402344 88.011719 27.183594 C 87.894531 26.738281 86.910156 28.027344 87.167969 28.578125 C 87.628906 29.574219 87.691406 30.628906 88.277344 31.589844 C 88.867188 32.550781 89.558594 33.476562 90.066406 34.457031 C 90.355469 35.015625 90.585938 35.59375 91.011719 36.109375 C 91.433594 36.625 92.09375 37.058594 92.894531 37.136719 C 92.886719 36.761719 92.964844 36.390625 93.121094 36.03125 C 93.292969 35.625 93.601562 35.148438 93.351562 34.761719 Z M 93.351562 34.761719 "/>
<path style=" stroke:none;fill-rule:nonzero;fill:rgb(61.960784%,38.039216%,41.568627%);fill-opacity:1;" d="M 102.085938 35.429688 C 102.050781 34.703125 102.203125 33.972656 102.535156 33.285156 C 102.664062 33.023438 102.8125 32.757812 102.800781 32.476562 C 102.785156 32.21875 102.617188 31.976562 102.464844 31.742188 C 101.945312 30.933594 101.578125 30.074219 101.214844 29.21875 L 100.523438 27.601562 C 100.296875 27.480469 101.617188 27.4375 101.898438 27.726562 C 102.820312 28.679688 103.519531 29.769531 104.25 30.808594 C 104.4375 31.058594 104.59375 31.316406 104.726562 31.582031 C 104.902344 32.015625 104.988281 32.464844 104.976562 32.917969 C 104.976562 33.765625 104.824219 34.605469 104.667969 35.445312 C 104.570312 35.96875 104.441406 36.539062 103.90625 36.886719 C 103.351562 36.359375 102.792969 35.84375 102.085938 35.429688 Z M 102.085938 35.429688 "/>
<path style=" stroke:none;fill-rule:nonzero;fill:rgb(61.960784%,38.039216%,41.568627%);fill-opacity:1;" d="M 101.296875 32.453125 C 101.296875 33.636719 100.003906 34.59375 98.414062 34.59375 C 96.824219 34.59375 95.53125 33.636719 95.53125 32.453125 C 95.53125 31.269531 96.824219 30.3125 98.414062 30.3125 C 100.003906 30.3125 101.296875 31.269531 101.296875 32.453125 Z M 101.296875 32.453125 "/>
<path style=" stroke:none;fill-rule:nonzero;fill:rgb(17.647059%,16.078431%,23.921569%);fill-opacity:1;" d="M 96.070312 30.316406 C 96.003906 30.183594 96.046875 30.035156 96.175781 29.933594 C 96.25 29.890625 96.34375 29.875 96.421875 29.835938 C 96.53125 29.765625 96.621094 29.683594 96.683594 29.585938 C 97.09375 29.164062 97.847656 29.023438 98.476562 29.25 C 98.953125 29.433594 99.242188 29.804688 99.664062 30.054688 C 99.878906 30.183594 100.128906 30.28125 100.34375 30.410156 C 100.777344 30.6875 101.085938 31.058594 101.226562 31.46875 C 101.367188 31.878906 101.449219 32.300781 101.472656 32.722656 C 101.496094 32.847656 101.488281 32.976562 101.453125 33.101562 C 101.410156 33.207031 101.34375 33.304688 101.257812 33.394531 C 100.824219 33.886719 100.25 34.332031 99.53125 34.585938 C 98.8125 34.835938 97.9375 34.878906 97.230469 34.613281 C 97.15625 34.59375 97.097656 34.554688 97.050781 34.507812 C 97.011719 34.4375 97.003906 34.359375 97.023438 34.28125 C 97.0625 33.984375 96.984375 33.679688 96.796875 33.414062 C 96.664062 33.21875 96.464844 33.050781 96.359375 32.847656 C 96.261719 32.621094 96.21875 32.382812 96.234375 32.144531 C 96.222656 31.527344 96.28125 30.910156 96.070312 30.316406 Z M 96.070312 30.316406 "/>
<path style=" stroke:none;fill-rule:nonzero;fill:rgb(24.705882%,23.921569%,33.72549%);fill-opacity:1;" d="M 6.851562 70.695312 L 6.851562 48.886719 C 6.851562 48.605469 7.398438 48.378906 8.074219 48.378906 L 13.539062 48.378906 C 14.214844 48.378906 14.765625 48.605469 14.765625 48.886719 L 14.765625 70.753906 Z M 6.851562 70.695312 "/>
<path style=" stroke:none;fill-rule:nonzero;fill:rgb(90.196078%,90.196078%,90.196078%);fill-opacity:1;" d="M 113.882812 70.980469 L 0.140625 70.980469 C 0.0625 70.980469 0 70.933594 0 70.875 C 0 70.820312 0.0625 70.773438 0.140625 70.773438 L 113.882812 70.773438 C 113.960938 70.773438 114.023438 70.820312 114.023438 70.875 C 114.023438 70.933594 113.960938 70.980469 113.882812 70.980469 Z M 113.882812 70.980469 "/>
<path style=" stroke:none;fill-rule:nonzero;fill:rgb(0%,48.235294%,100%);fill-opacity:1;" d="M 61.003906 70.617188 L 61.003906 19.351562 C 61.003906 18.695312 61.550781 18.164062 62.226562 18.164062 L 67.695312 18.164062 C 68.371094 18.164062 68.917969 18.695312 68.917969 19.351562 L 68.917969 70.753906 Z M 61.003906 70.617188 "/>
<path style=" stroke:none;fill-rule:nonzero;fill:rgb(62.745098%,38.039216%,41.568627%);fill-opacity:1;" d="M 88.335938 27.386719 C 88.335938 27.898438 87.777344 28.3125 87.085938 28.3125 C 86.398438 28.3125 85.835938 27.898438 85.835938 27.386719 C 85.835938 26.871094 86.398438 26.457031 87.085938 26.457031 C 87.777344 26.457031 88.335938 26.871094 88.335938 27.386719 Z M 88.335938 27.386719 "/>
<path style=" stroke:none;fill-rule:nonzero;fill:rgb(62.745098%,38.039216%,41.568627%);fill-opacity:1;" d="M 102.222656 26.972656 C 102.222656 27.484375 101.664062 27.902344 100.972656 27.902344 C 100.28125 27.902344 99.722656 27.484375 99.722656 26.972656 C 99.722656 26.460938 100.28125 26.042969 100.972656 26.042969 C 101.664062 26.042969 102.222656 26.460938 102.222656 26.972656 Z M 102.222656 26.972656 "/>
<path style=" stroke:none;fill-rule:nonzero;fill:rgb(90.196078%,90.196078%,90.196078%);fill-opacity:1;" d="M 104.007812 38.46875 C 104.132812 38.386719 105.125 34.066406 105.121094 33.96875 C 105.105469 33.4375 102.917969 32.828125 102.480469 33.039062 C 102.070312 33.238281 101.351562 35.527344 100.886719 35.945312 L 100.398438 35.308594 L 96.511719 35.308594 L 96.273438 35.636719 C 95.765625 35.40625 95.304688 35.195312 95.140625 35.125 C 95.085938 35.097656 95.023438 35.074219 94.960938 35.058594 C 94.554688 34.992188 94.175781 34.859375 93.851562 34.671875 C 93.53125 34.488281 92.046875 32.578125 91.652344 32.625 C 91.203125 32.683594 89.691406 33.65625 89.707031 34.585938 C 89.898438 34.585938 92.375 38.265625 92.410156 38.402344 C 92.601562 38.984375 93.226562 47.441406 93.429688 47.835938 C 94.363281 47.769531 93.628906 47.648438 94.53125 47.835938 C 95.503906 48.035156 96.53125 47.820312 97.535156 47.738281 C 97.953125 47.707031 98.375 47.695312 98.792969 47.699219 C 100.320312 47.703125 102.5 47.765625 103.980469 48.046875 C 103.988281 47.328125 103.136719 45.769531 102.824219 45.089844 C 102.78125 44.886719 102.78125 44.679688 102.828125 44.476562 C 102.867188 44.226562 103.679688 38.746094 104.007812 38.46875 Z M 104.007812 38.46875 "/>
</g>
</svg>
