<?xml version="1.0" encoding="UTF-8"?>
<svg xmlns="http://www.w3.org/2000/svg" xmlns:xlink="http://www.w3.org/1999/xlink" width="114px" height="71px" viewBox="0 0 114 71" version="1.1">
<defs>
<linearGradient id="linear0" gradientUnits="userSpaceOnUse" x1="-1211.56439" y1="1173.41747" x2="-1232.05939" y2="1233.96496" gradientTransform="matrix(0.265067,0,0,0.165826,360.153221,-140.608897)">
<stop offset="0" style="stop-color:rgb(6.666667%,29.019608%,54.509804%);stop-opacity:1;"/>
<stop offset="1" style="stop-color:rgb(2.352941%,41.176471%,73.72549%);stop-opacity:1;"/>
</linearGradient>
<linearGradient id="linear1" gradientUnits="userSpaceOnUse" x1="-1205.16237" y1="1201.63341" x2="-1209.90309" y2="1203.23644" gradientTransform="matrix(0.265067,0,0,0.165826,360.153221,-140.608897)">
<stop offset="0" style="stop-color:rgb(0%,0%,0%);stop-opacity:0.301961;"/>
<stop offset="0.071" style="stop-color:rgb(0%,0%,0%);stop-opacity:0.2;"/>
<stop offset="0.321" style="stop-color:rgb(0%,0%,0%);stop-opacity:0.101961;"/>
<stop offset="0.623" style="stop-color:rgb(0%,0%,0%);stop-opacity:0.0509804;"/>
<stop offset="1" style="stop-color:rgb(0%,0%,0%);stop-opacity:0;"/>
</linearGradient>
<linearGradient id="linear2" gradientUnits="userSpaceOnUse" x1="-1207.62209" y1="1171.59629" x2="-1185.12454" y2="1231.53367" gradientTransform="matrix(0.265067,0,0,0.165826,360.153221,-140.608897)">
<stop offset="0" style="stop-color:rgb(23.529412%,79.607843%,95.686275%);stop-opacity:1;"/>
<stop offset="1" style="stop-color:rgb(15.686275%,57.254902%,87.45098%);stop-opacity:1;"/>
</linearGradient>
</defs>
<g id="surface1">
<path style=" stroke:none;fill-rule:nonzero;fill:rgb(94.901961%,94.901961%,94.901961%);fill-opacity:1;" d="M 41.445312 9.4375 C 41.160156 9.140625 39.941406 9.460938 39.714844 9.1875 C 39.492188 8.921875 40.628906 8.511719 41.273438 7.574219 C 41.390625 7.40625 42.128906 6.339844 41.582031 6.011719 C 40.550781 5.390625 35.820312 7.957031 34.167969 7.117188 C 33.804688 6.933594 33.550781 6.566406 32.453125 5.964844 C 32.015625 5.726562 31.75 5.621094 31.496094 5.660156 C 31.132812 5.71875 31.101562 6.023438 30.714844 6.621094 C 30.128906 7.515625 29.785156 7.460938 29.445312 8.175781 C 29.191406 8.707031 29.25 9.015625 28.953125 9.074219 C 28.53125 9.160156 28.144531 8.597656 27.613281 8.648438 C 27.066406 8.699219 26.738281 9.355469 26.636719 9.847656 C 26.441406 10.769531 26.980469 11.375 27.28125 12.015625 C 27.605469 12.710938 27.800781 13.765625 27.046875 15.261719 L 19.601562 28.382812 C 21.246094 25.691406 26.003906 18.308594 28.003906 15.566406 C 28.582031 14.773438 29.21875 13.972656 30.527344 13.652344 C 31.789062 13.347656 33.519531 13.53125 35.726562 13.199219 C 35.984375 13.160156 36.699219 13.046875 36.789062 12.78125 C 36.863281 12.566406 36.441406 12.445312 36.507812 12.242188 C 36.59375 11.96875 37.417969 11.964844 38.4375 11.648438 C 39.152344 11.425781 39.597656 11.160156 39.984375 10.933594 C 40.097656 10.867188 41.820312 9.835938 41.445312 9.4375 Z M 41.445312 9.4375 "/>
<path style=" stroke:none;fill-rule:nonzero;fill:rgb(94.901961%,94.901961%,94.901961%);fill-opacity:1;" d="M 12.15625 16.347656 C 11.839844 16.347656 11.738281 16.8125 11.460938 16.804688 C 11.1875 16.796875 11.191406 16.328125 10.644531 15.859375 C 10.542969 15.777344 9.921875 15.242188 9.507812 15.316406 C 8.71875 15.453125 9.371094 17.644531 8.234375 17.910156 C 7.984375 17.96875 7.621094 17.941406 6.835938 18.105469 C 6.523438 18.171875 6.363281 18.222656 6.320312 18.3125 C 6.261719 18.4375 6.492188 18.535156 6.847656 18.828125 C 7.382812 19.265625 7.238281 19.355469 7.703125 19.667969 C 8.046875 19.898438 8.304688 19.96875 8.265625 20.078125 C 8.210938 20.230469 7.660156 20.1875 7.542969 20.367188 C 7.429688 20.546875 7.847656 20.835938 8.203125 21.011719 C 8.867188 21.335938 9.5 21.347656 10.089844 21.4375 C 10.730469 21.539062 11.613281 21.785156 12.570312 22.445312 L 20.714844 28.519531 C 19.078125 27.238281 14.660156 23.644531 13.085938 22.242188 C 12.628906 21.835938 12.183594 21.40625 12.3125 20.914062 C 12.4375 20.4375 13.078125 19.960938 13.457031 19.1875 C 13.5 19.097656 13.617188 18.84375 13.4375 18.742188 C 13.285156 18.65625 13.070312 18.75 12.929688 18.671875 C 12.738281 18.566406 12.976562 18.3125 13.019531 17.90625 C 13.054688 17.625 12.976562 17.410156 12.90625 17.226562 C 12.886719 17.171875 12.574219 16.34375 12.15625 16.347656 Z M 12.15625 16.347656 "/>
<path style=" stroke:none;fill-rule:nonzero;fill:rgb(94.901961%,94.901961%,94.901961%);fill-opacity:1;" d="M 18.4375 17.230469 L 18.246094 16.167969 L 18.335938 16.089844 C 18.734375 15.71875 18.941406 15.355469 18.941406 15.011719 C 18.941406 14.957031 18.9375 14.902344 18.933594 14.84375 C 18.917969 14.625 18.898438 14.347656 19.125 14.027344 C 19.253906 13.851562 19.617188 13.4375 20.15625 13.488281 C 20.304688 13.5 20.414062 13.542969 20.5 13.59375 C 20.511719 13.578125 20.523438 13.566406 20.535156 13.554688 C 20.707031 13.394531 20.839844 13.324219 20.96875 13.257812 C 21.066406 13.207031 21.167969 13.152344 21.328125 13.027344 C 21.398438 12.972656 21.453125 12.925781 21.5 12.886719 C 21.640625 12.761719 21.824219 12.617188 22.148438 12.621094 C 22.492188 12.628906 22.671875 12.808594 22.792969 12.925781 C 23.007812 13.136719 23.105469 13.289062 23.167969 13.390625 C 23.191406 13.425781 23.21875 13.46875 23.230469 13.480469 C 23.34375 13.582031 24.246094 13.488281 24.585938 13.453125 C 25.351562 13.375 26.015625 13.304688 26.285156 13.605469 C 26.484375 13.824219 26.335938 14.109375 25.84375 14.476562 C 25.6875 14.59375 25.523438 14.679688 25.378906 14.75 C 25.5 14.792969 25.609375 14.863281 25.652344 14.972656 C 25.753906 15.226562 25.402344 15.484375 24.601562 15.738281 C 24.40625 15.800781 24.136719 15.882812 23.761719 15.925781 C 23.585938 15.945312 23.429688 15.949219 23.292969 15.949219 C 23.289062 16 23.269531 16.054688 23.222656 16.109375 C 23.082031 16.269531 22.792969 16.34375 22.351562 16.328125 C 21.867188 16.3125 21.46875 16.253906 21.117188 16.203125 C 20.808594 16.160156 20.546875 16.121094 20.335938 16.128906 C 19.953125 16.148438 19.65625 16.34375 19.308594 16.59375 Z M 18.4375 17.230469 "/>
<path style=" stroke:none;fill-rule:nonzero;fill:rgb(94.901961%,94.901961%,94.901961%);fill-opacity:1;" d="M 19.316406 10.921875 L 17.726562 11.304688 L 17.582031 11.273438 C 16.90625 11.121094 16.292969 11.089844 15.757812 11.175781 C 15.675781 11.191406 15.589844 11.207031 15.507812 11.222656 C 15.167969 11.289062 14.75 11.371094 14.195312 11.3125 C 13.886719 11.28125 13.15625 11.167969 13.097656 10.828125 C 13.082031 10.734375 13.117188 10.660156 13.171875 10.59375 C 13.148438 10.589844 13.128906 10.585938 13.105469 10.582031 C 12.8125 10.519531 12.671875 10.457031 12.535156 10.394531 C 12.429688 10.347656 12.324219 10.300781 12.089844 10.234375 C 11.988281 10.207031 11.898438 10.183594 11.824219 10.167969 C 11.601562 10.113281 11.328125 10.039062 11.25 9.84375 C 11.179688 9.632812 11.410156 9.476562 11.5625 9.375 C 11.832031 9.191406 12.042969 9.09375 12.183594 9.03125 C 12.234375 9.007812 12.292969 8.980469 12.308594 8.96875 C 12.4375 8.875 12.0625 8.351562 11.921875 8.15625 C 11.601562 7.714844 11.328125 7.332031 11.726562 7.089844 C 12.011719 6.914062 12.488281 6.929688 13.1875 7.136719 C 13.402344 7.199219 13.578125 7.277344 13.722656 7.347656 C 13.761719 7.265625 13.839844 7.179688 13.996094 7.128906 C 14.367188 7 14.855469 7.148438 15.449219 7.566406 C 15.59375 7.671875 15.792969 7.8125 15.949219 8.027344 C 16.023438 8.128906 16.070312 8.222656 16.109375 8.304688 C 16.1875 8.296875 16.273438 8.292969 16.371094 8.308594 C 16.65625 8.351562 16.847656 8.507812 16.929688 8.78125 C 17.027344 9.078125 17.042969 9.332031 17.050781 9.558594 C 17.0625 9.753906 17.070312 9.925781 17.136719 10.046875 C 17.265625 10.277344 17.636719 10.40625 18.113281 10.554688 Z M 19.316406 10.921875 "/>
<path style=" stroke:none;fill-rule:nonzero;fill:rgb(94.901961%,94.901961%,94.901961%);fill-opacity:1;" d="M 18.4375 7.796875 L 18.246094 6.738281 L 18.335938 6.660156 C 18.734375 6.289062 18.941406 5.925781 18.941406 5.582031 C 18.941406 5.527344 18.9375 5.472656 18.933594 5.414062 C 18.917969 5.195312 18.898438 4.917969 19.125 4.597656 C 19.253906 4.421875 19.617188 4.007812 20.15625 4.058594 C 20.304688 4.070312 20.414062 4.113281 20.5 4.160156 C 20.511719 4.148438 20.523438 4.136719 20.535156 4.125 C 20.707031 3.964844 20.839844 3.894531 20.96875 3.828125 C 21.066406 3.777344 21.167969 3.722656 21.328125 3.597656 C 21.398438 3.542969 21.453125 3.496094 21.5 3.457031 C 21.640625 3.332031 21.824219 3.1875 22.148438 3.191406 C 22.492188 3.199219 22.671875 3.378906 22.792969 3.496094 C 23.007812 3.707031 23.105469 3.859375 23.167969 3.960938 C 23.191406 3.996094 23.21875 4.039062 23.230469 4.050781 C 23.34375 4.152344 24.246094 4.058594 24.585938 4.023438 C 25.351562 3.945312 26.015625 3.875 26.285156 4.175781 C 26.484375 4.390625 26.335938 4.675781 25.84375 5.046875 C 25.6875 5.164062 25.523438 5.25 25.378906 5.320312 C 25.5 5.363281 25.609375 5.433594 25.652344 5.542969 C 25.753906 5.796875 25.402344 6.054688 24.601562 6.308594 C 24.40625 6.371094 24.136719 6.453125 23.761719 6.496094 C 23.585938 6.511719 23.429688 6.519531 23.292969 6.519531 C 23.289062 6.570312 23.269531 6.621094 23.222656 6.675781 C 23.082031 6.839844 22.792969 6.914062 22.351562 6.898438 C 21.867188 6.882812 21.46875 6.824219 21.117188 6.773438 C 20.808594 6.730469 20.546875 6.691406 20.335938 6.699219 C 19.953125 6.71875 19.65625 6.914062 19.308594 7.164062 Z M 18.4375 7.796875 "/>
<path style=" stroke:none;fill-rule:nonzero;fill:rgb(94.901961%,94.901961%,94.901961%);fill-opacity:1;" d="M 20.171875 28.367188 L 19.816406 28.226562 L 19.730469 27.96875 L 19.816406 28.226562 L 19.402344 28.257812 C 19.394531 28.230469 19.371094 28.175781 19.339844 28.089844 C 19.152344 27.617188 18.589844 26.175781 18.117188 23.902344 C 17.789062 22.320312 17.601562 20.691406 17.566406 19.058594 C 17.527344 17.429688 17.648438 16.191406 17.75 15.199219 C 17.824219 14.449219 17.914062 13.738281 18.003906 13.042969 C 18.242188 11.1875 18.464844 9.433594 18.296875 7.492188 C 18.261719 7.058594 18.183594 6.15625 17.339844 5.195312 C 16.851562 4.640625 16.179688 4.144531 15.339844 3.730469 L 15.863281 3.320312 C 16.789062 3.78125 17.53125 4.328125 18.074219 4.945312 C 19.007812 6.007812 19.09375 6.992188 19.132812 7.464844 C 19.304688 9.441406 19.078125 11.210938 18.835938 13.085938 C 18.75 13.777344 18.660156 14.488281 18.585938 15.230469 C 18.484375 16.214844 18.363281 17.441406 18.402344 19.050781 C 18.441406 20.660156 18.625 22.273438 18.949219 23.835938 C 19.414062 26.078125 19.96875 27.5 20.152344 27.964844 C 20.25 28.214844 20.269531 28.265625 20.171875 28.367188 Z M 20.171875 28.367188 "/>
<path style=" stroke:none;fill-rule:nonzero;fill:rgb(94.901961%,94.901961%,94.901961%);fill-opacity:1;" d="M 13.804688 4.5625 C 13.769531 4.5625 13.734375 4.5625 13.699219 4.558594 C 12.988281 4.535156 12.328125 4.269531 11.738281 3.765625 C 11.460938 3.527344 11.320312 3.257812 11.039062 2.722656 C 10.992188 2.640625 10.78125 2.21875 10.652344 1.640625 C 10.566406 1.261719 10.578125 1.105469 10.699219 0.964844 C 10.832031 0.808594 11.046875 0.699219 11.289062 0.625 C 11.277344 0.578125 11.285156 0.523438 11.320312 0.472656 C 11.464844 0.253906 11.84375 0.28125 12.046875 0.296875 C 12.152344 0.304688 12.28125 0.316406 12.421875 0.3125 C 12.640625 0.304688 12.757812 0.261719 12.9375 0.203125 C 13.109375 0.144531 13.324219 0.0703125 13.636719 0.0273438 C 14.261719 -0.0507812 14.785156 0.0585938 14.957031 0.09375 C 15.863281 0.285156 16.308594 0.722656 16.824219 1.234375 C 16.929688 1.335938 17.28125 1.707031 17.515625 2.21875 C 17.683594 2.585938 17.660156 2.75 17.609375 2.875 C 17.507812 3.125 17.261719 3.265625 16.644531 3.582031 C 16 3.914062 15.675781 4.078125 15.398438 4.179688 C 14.75 4.414062 14.34375 4.5625 13.804688 4.5625 Z M 13.804688 4.5625 "/>
<path style=" stroke:none;fill-rule:nonzero;fill:rgb(24.705882%,23.921569%,33.72549%);fill-opacity:1;" d="M 48.636719 70.414062 C 48.636719 70.484375 48.726562 70.539062 48.839844 70.539062 L 90.789062 70.539062 C 90.902344 70.539062 90.992188 70.484375 90.992188 70.414062 C 90.992188 70.378906 90.972656 70.351562 90.9375 70.328125 L 75.71875 70.328125 C 75.394531 70.328125 75.078125 70.3125 74.765625 70.289062 L 48.839844 70.289062 C 48.726562 70.289062 48.636719 70.34375 48.636719 70.414062 Z M 48.636719 70.414062 "/>
<path style=" stroke:none;fill-rule:nonzero;fill:rgb(100%,100%,100%);fill-opacity:1;" d="M 28.371094 48.070312 L 51.722656 48.070312 C 55.679688 48.070312 58.886719 50.078125 58.886719 52.550781 L 58.886719 64.273438 C 58.886719 66.746094 55.679688 68.753906 51.722656 68.753906 L 28.371094 68.753906 C 24.414062 68.753906 21.207031 66.746094 21.207031 64.273438 L 21.207031 52.550781 C 21.207031 50.078125 24.414062 48.070312 28.371094 48.070312 Z M 28.371094 48.070312 "/>
<path style=" stroke:none;fill-rule:nonzero;fill:rgb(24.705882%,23.921569%,33.72549%);fill-opacity:1;" d="M 21.035156 64.273438 L 21.035156 52.550781 C 21.035156 50.023438 24.324219 47.964844 28.371094 47.964844 L 51.722656 47.964844 C 55.769531 47.964844 59.058594 50.023438 59.058594 52.550781 L 59.058594 64.273438 C 59.058594 66.800781 55.769531 68.859375 51.722656 68.859375 L 28.371094 68.859375 C 24.324219 68.859375 21.035156 66.800781 21.035156 64.273438 Z M 28.371094 48.175781 C 24.511719 48.175781 21.375 50.140625 21.375 52.550781 L 21.375 64.273438 C 21.375 66.683594 24.511719 68.648438 28.371094 68.648438 L 51.722656 68.648438 C 55.582031 68.648438 58.71875 66.683594 58.71875 64.273438 L 58.71875 52.550781 C 58.71875 50.140625 55.582031 48.175781 51.722656 48.175781 Z M 28.371094 48.175781 "/>
<path style=" stroke:none;fill-rule:nonzero;fill:url(#linear0);" d="M 37.101562 53.203125 L 42.332031 53.203125 L 36.902344 63.265625 C 36.789062 63.480469 36.46875 63.621094 36.113281 63.621094 L 32.039062 63.621094 C 31.582031 63.621094 31.207031 63.390625 31.207031 63.101562 C 31.207031 63.042969 31.222656 62.988281 31.25 62.933594 L 36.3125 53.558594 C 36.425781 53.34375 36.742188 53.203125 37.101562 53.203125 Z M 37.101562 53.203125 "/>
<path style=" stroke:none;fill-rule:nonzero;fill:rgb(0%,47.058824%,83.137255%);fill-opacity:1;" d="M 44.703125 59.953125 L 36.40625 59.953125 C 36.195312 59.953125 36.023438 60.058594 36.023438 60.191406 C 36.023438 60.261719 36.066406 60.324219 36.144531 60.367188 L 41.476562 63.480469 C 41.628906 63.570312 41.835938 63.621094 42.046875 63.621094 L 46.746094 63.621094 Z M 44.703125 59.953125 "/>
<path style=" stroke:none;fill-rule:nonzero;fill:url(#linear1);" d="M 37.101562 53.203125 C 36.738281 53.199219 36.417969 53.347656 36.308594 53.5625 L 31.257812 62.925781 C 31.101562 63.195312 31.328125 63.496094 31.757812 63.59375 C 31.851562 63.613281 31.945312 63.621094 32.042969 63.621094 L 36.21875 63.621094 C 36.535156 63.585938 36.796875 63.449219 36.902344 63.257812 L 37.910156 61.402344 L 41.507812 63.5 C 41.660156 63.578125 41.847656 63.621094 42.046875 63.621094 L 46.722656 63.621094 L 44.671875 59.953125 L 38.6875 59.953125 L 42.351562 53.203125 Z M 37.101562 53.203125 "/>
<path style=" stroke:none;fill-rule:nonzero;fill:url(#linear2);" d="M 43.78125 53.554688 C 43.667969 53.34375 43.351562 53.203125 42.992188 53.203125 L 37.164062 53.203125 C 37.519531 53.203125 37.839844 53.34375 37.953125 53.554688 L 43.011719 62.933594 C 43.160156 63.207031 42.925781 63.503906 42.488281 63.59375 C 42.402344 63.613281 42.3125 63.621094 42.222656 63.621094 L 48.054688 63.621094 C 48.511719 63.621094 48.886719 63.390625 48.886719 63.101562 C 48.886719 63.042969 48.871094 62.988281 48.84375 62.933594 Z M 43.78125 53.554688 "/>
<path style=" stroke:none;fill-rule:nonzero;fill:rgb(100%,100%,100%);fill-opacity:1;" d="M 7.332031 21.960938 L 30.6875 21.960938 C 34.644531 21.960938 37.851562 23.96875 37.851562 26.445312 L 37.851562 38.164062 C 37.851562 40.640625 34.644531 42.644531 30.6875 42.644531 L 7.332031 42.644531 C 3.378906 42.644531 0.167969 40.640625 0.167969 38.164062 L 0.167969 26.445312 C 0.167969 23.96875 3.378906 21.960938 7.332031 21.960938 Z M 7.332031 21.960938 "/>
<path style=" stroke:none;fill-rule:nonzero;fill:rgb(24.705882%,23.921569%,33.72549%);fill-opacity:1;" d="M 0 38.164062 L 0 26.445312 C 0 23.914062 3.289062 21.855469 7.332031 21.855469 L 30.6875 21.855469 C 34.730469 21.855469 38.023438 23.914062 38.023438 26.445312 L 38.023438 38.164062 C 38.023438 40.695312 34.730469 42.753906 30.6875 42.753906 L 7.332031 42.753906 C 3.289062 42.753906 0 40.695312 0 38.164062 Z M 7.332031 22.070312 C 3.476562 22.070312 0.339844 24.03125 0.339844 26.445312 L 0.339844 38.164062 C 0.339844 40.578125 3.476562 42.539062 7.332031 42.539062 L 30.6875 42.539062 C 34.546875 42.539062 37.683594 40.578125 37.683594 38.164062 L 37.683594 26.445312 C 37.683594 24.03125 34.546875 22.070312 30.6875 22.070312 Z M 7.332031 22.070312 "/>
<path style=" stroke:none;fill-rule:nonzero;fill:rgb(14.509804%,18.431373%,24.313725%);fill-opacity:1;" d="M 14.347656 32.484375 C 14.347656 32.648438 14.375 32.78125 14.425781 32.878906 C 14.480469 32.976562 14.550781 33.085938 14.652344 33.199219 C 14.6875 33.234375 14.703125 33.269531 14.703125 33.300781 C 14.703125 33.347656 14.660156 33.390625 14.566406 33.4375 L 14.117188 33.621094 C 14.054688 33.648438 13.992188 33.664062 13.933594 33.664062 C 13.863281 33.664062 13.792969 33.640625 13.722656 33.601562 C 13.621094 33.535156 13.535156 33.460938 13.464844 33.390625 C 13.394531 33.316406 13.324219 33.230469 13.246094 33.128906 C 12.691406 33.539062 11.992188 33.742188 11.152344 33.742188 C 10.558594 33.742188 10.082031 33.636719 9.730469 33.421875 C 9.382812 33.207031 9.207031 32.925781 9.207031 32.570312 C 9.207031 32.191406 9.417969 31.882812 9.851562 31.652344 C 10.285156 31.421875 10.863281 31.304688 11.59375 31.304688 C 11.835938 31.304688 12.085938 31.320312 12.347656 31.339844 C 12.613281 31.363281 12.882812 31.398438 13.167969 31.4375 L 13.167969 31.113281 C 13.167969 30.777344 13.050781 30.539062 12.832031 30.402344 C 12.605469 30.265625 12.21875 30.199219 11.671875 30.199219 C 11.425781 30.199219 11.167969 30.214844 10.90625 30.253906 C 10.640625 30.296875 10.386719 30.34375 10.136719 30.40625 C 10.023438 30.4375 9.9375 30.457031 9.886719 30.464844 C 9.839844 30.472656 9.804688 30.476562 9.773438 30.476562 C 9.675781 30.476562 9.625 30.433594 9.625 30.339844 L 9.625 30.121094 C 9.625 30.050781 9.640625 29.996094 9.675781 29.964844 C 9.710938 29.933594 9.773438 29.902344 9.875 29.871094 C 10.125 29.792969 10.421875 29.726562 10.769531 29.671875 C 11.117188 29.613281 11.488281 29.589844 11.878906 29.589844 C 12.726562 29.589844 13.34375 29.707031 13.742188 29.949219 C 14.132812 30.1875 14.332031 30.554688 14.332031 31.042969 L 14.332031 32.484375 Z M 11.460938 33.160156 C 11.695312 33.160156 11.9375 33.132812 12.191406 33.078125 C 12.449219 33.027344 12.675781 32.929688 12.867188 32.796875 C 12.980469 32.710938 13.066406 32.617188 13.109375 32.511719 C 13.152344 32.402344 13.179688 32.273438 13.179688 32.125 L 13.179688 31.9375 C 12.972656 31.90625 12.753906 31.878906 12.527344 31.859375 C 12.296875 31.84375 12.078125 31.835938 11.859375 31.835938 C 11.382812 31.835938 11.035156 31.890625 10.796875 32.011719 C 10.5625 32.132812 10.449219 32.300781 10.449219 32.523438 C 10.449219 32.734375 10.535156 32.886719 10.714844 32.996094 C 10.882812 33.105469 11.132812 33.160156 11.460938 33.160156 Z M 17.167969 33.640625 C 17.042969 33.640625 16.957031 33.628906 16.898438 33.597656 C 16.84375 33.570312 16.792969 33.507812 16.75 33.421875 L 15.078125 29.984375 C 15.035156 29.894531 15.015625 29.835938 15.015625 29.804688 C 15.015625 29.734375 15.070312 29.695312 15.183594 29.695312 L 15.882812 29.695312 C 16.015625 29.695312 16.109375 29.707031 16.160156 29.738281 C 16.214844 29.765625 16.257812 29.828125 16.300781 29.914062 L 17.496094 32.859375 L 18.605469 29.914062 C 18.640625 29.824219 18.683594 29.765625 18.742188 29.738281 C 18.796875 29.710938 18.898438 29.695312 19.023438 29.695312 L 19.59375 29.695312 C 19.730469 29.695312 19.820312 29.707031 19.878906 29.738281 C 19.933594 29.765625 19.984375 29.828125 20.011719 29.914062 L 21.136719 32.894531 L 22.367188 29.914062 C 22.410156 29.824219 22.460938 29.765625 22.507812 29.738281 C 22.566406 29.710938 22.65625 29.695312 22.785156 29.695312 L 23.449219 29.695312 C 23.5625 29.695312 23.625 29.730469 23.625 29.804688 C 23.625 29.828125 23.617188 29.851562 23.609375 29.878906 C 23.605469 29.902344 23.589844 29.941406 23.5625 29.988281 L 21.847656 33.425781 C 21.804688 33.515625 21.753906 33.574219 21.699219 33.601562 C 21.640625 33.628906 21.550781 33.644531 21.429688 33.644531 L 20.816406 33.644531 C 20.679688 33.644531 20.589844 33.632812 20.53125 33.601562 C 20.476562 33.570312 20.425781 33.511719 20.398438 33.421875 L 19.296875 30.554688 L 18.199219 33.417969 C 18.164062 33.507812 18.121094 33.566406 18.066406 33.597656 C 18.007812 33.628906 17.910156 33.640625 17.78125 33.640625 Z M 26.304688 33.761719 C 25.9375 33.761719 25.566406 33.734375 25.210938 33.679688 C 24.855469 33.628906 24.578125 33.570312 24.394531 33.503906 C 24.277344 33.460938 24.199219 33.417969 24.171875 33.378906 C 24.144531 33.339844 24.128906 33.292969 24.128906 33.253906 L 24.128906 33.027344 C 24.128906 32.933594 24.1875 32.886719 24.292969 32.886719 C 24.335938 32.886719 24.378906 32.894531 24.421875 32.902344 C 24.464844 32.910156 24.527344 32.929688 24.597656 32.945312 C 24.839844 33.011719 25.105469 33.066406 25.382812 33.101562 C 25.664062 33.136719 25.941406 33.15625 26.226562 33.15625 C 26.675781 33.15625 27.023438 33.105469 27.265625 33.007812 C 27.507812 32.910156 27.636719 32.769531 27.636719 32.585938 C 27.636719 32.460938 27.570312 32.359375 27.441406 32.273438 C 27.316406 32.191406 27.074219 32.113281 26.726562 32.042969 L 25.695312 31.84375 C 25.175781 31.742188 24.792969 31.589844 24.554688 31.390625 C 24.320312 31.195312 24.199219 30.976562 24.199219 30.746094 C 24.199219 30.558594 24.265625 30.394531 24.394531 30.25 C 24.519531 30.109375 24.691406 29.984375 24.90625 29.886719 C 25.117188 29.785156 25.359375 29.707031 25.644531 29.65625 C 25.929688 29.601562 26.226562 29.578125 26.539062 29.578125 C 26.695312 29.578125 26.859375 29.582031 27.015625 29.597656 C 27.179688 29.609375 27.328125 29.628906 27.480469 29.644531 C 27.621094 29.667969 27.757812 29.691406 27.882812 29.71875 C 28.011719 29.742188 28.113281 29.769531 28.183594 29.796875 C 28.28125 29.832031 28.351562 29.867188 28.394531 29.910156 C 28.4375 29.945312 28.460938 29.992188 28.460938 30.054688 L 28.460938 30.265625 C 28.460938 30.359375 28.402344 30.40625 28.296875 30.40625 C 28.238281 30.40625 28.148438 30.390625 28.027344 30.351562 C 27.621094 30.238281 27.164062 30.179688 26.660156 30.179688 C 26.253906 30.179688 25.9375 30.21875 25.714844 30.304688 C 25.496094 30.390625 25.382812 30.519531 25.382812 30.699219 C 25.382812 30.824219 25.453125 30.929688 25.59375 31.015625 C 25.738281 31.101562 26 31.183594 26.375 31.261719 L 27.386719 31.460938 C 27.898438 31.5625 28.269531 31.707031 28.488281 31.886719 C 28.707031 32.070312 28.816406 32.277344 28.816406 32.511719 C 28.816406 32.703125 28.75 32.875 28.628906 33.027344 C 28.503906 33.179688 28.332031 33.3125 28.113281 33.417969 C 27.890625 33.527344 27.628906 33.609375 27.324219 33.667969 C 27.003906 33.730469 26.667969 33.761719 26.304688 33.761719 Z M 26.304688 33.761719 "/>
<path style=" stroke:none;fill-rule:evenodd;fill:rgb(100%,60%,0%);fill-opacity:1;" d="M 27.648438 35.921875 C 25.308594 37.003906 21.910156 37.578125 18.988281 37.578125 C 14.894531 37.578125 11.203125 36.628906 8.417969 35.054688 C 8.195312 34.929688 8.394531 34.761719 8.660156 34.859375 C 11.671875 35.953125 15.390625 36.617188 19.238281 36.617188 C 21.832031 36.617188 24.683594 36.277344 27.308594 35.585938 C 27.699219 35.472656 28.035156 35.746094 27.648438 35.921875 Z M 27.648438 35.921875 "/>
<path style=" stroke:none;fill-rule:evenodd;fill:rgb(100%,60%,0%);fill-opacity:1;" d="M 28.625 35.226562 C 28.324219 34.988281 26.648438 35.113281 25.886719 35.171875 C 25.660156 35.1875 25.621094 35.0625 25.828125 34.96875 C 27.164062 34.382812 29.363281 34.550781 29.617188 34.746094 C 29.875 34.949219 29.546875 36.324219 28.296875 36.980469 C 28.105469 37.082031 27.917969 37.03125 28.003906 36.894531 C 28.289062 36.457031 28.921875 35.464844 28.625 35.226562 Z M 28.625 35.226562 "/>
<path style=" stroke:none;fill-rule:nonzero;fill:rgb(100%,71.372549%,71.372549%);fill-opacity:1;" d="M 72.679688 29.769531 C 72.511719 29.660156 71.152344 27.433594 71.152344 27.433594 L 67.929688 27.328125 L 66.457031 29.503906 Z M 72.679688 29.769531 "/>
<path style=" stroke:none;fill-rule:nonzero;fill:rgb(100%,71.372549%,71.372549%);fill-opacity:1;" d="M 72.445312 25.640625 C 72.445312 27.140625 70.503906 28.355469 68.105469 28.355469 C 65.710938 28.355469 63.769531 27.140625 63.769531 25.640625 C 63.769531 24.140625 65.710938 22.925781 68.105469 22.925781 C 70.503906 22.925781 72.445312 24.140625 72.445312 25.640625 Z M 72.445312 25.640625 "/>
<path style=" stroke:none;fill-rule:nonzero;fill:rgb(18.431373%,18.039216%,25.490196%);fill-opacity:1;" d="M 76.328125 44.46875 L 77.855469 47.652344 L 73.78125 66.117188 L 71.027344 66.117188 L 69.542969 52.214844 L 67.84375 56.988281 L 76.496094 63.886719 L 74.292969 65.480469 L 61.824219 57.890625 L 62.078125 46.164062 L 63.09375 44.359375 Z M 76.328125 44.46875 "/>
<path style=" stroke:none;fill-rule:nonzero;fill:rgb(18.431373%,18.039216%,25.490196%);fill-opacity:1;" d="M 71.746094 27.871094 L 71.40625 27.878906 C 71.40625 27.878906 71.101562 26.1875 70.925781 26.089844 C 70.746094 25.988281 70.425781 26.210938 70.425781 26.210938 C 70.425781 26.210938 69.027344 25.722656 68.984375 25.191406 C 68.945312 24.660156 68.910156 24.238281 68.402344 24.253906 C 67.894531 24.269531 65.046875 24.78125 64.371094 24.800781 C 63.691406 24.824219 62.617188 24.113281 63.753906 23.441406 C 64.890625 22.769531 65.886719 22.523438 66.050781 22.414062 C 66.210938 22.300781 67.269531 21.84375 68.199219 22.242188 C 69.125 22.636719 70.3125 22.601562 70.3125 22.601562 C 70.3125 22.601562 72.539062 22.851562 72.25 23.496094 C 71.960938 24.144531 73.078125 25.382812 72.621094 26.035156 C 72.160156 26.6875 71.746094 27.871094 71.746094 27.871094 Z M 71.746094 27.871094 "/>
<path style=" stroke:none;fill-rule:nonzero;fill:rgb(18.431373%,18.039216%,25.490196%);fill-opacity:1;" d="M 70.898438 65.796875 L 73.953125 66.011719 L 74.292969 69.511719 C 74.292969 69.511719 74.121094 71.210938 71.238281 71 C 68.355469 70.785156 69.203125 69.089844 69.203125 69.089844 Z M 70.898438 65.796875 "/>
<path style=" stroke:none;fill-rule:nonzero;fill:rgb(18.431373%,18.039216%,25.490196%);fill-opacity:1;" d="M 74.886719 63.304688 C 74.886719 63.304688 77.089844 62.667969 77.429688 63.410156 L 78.109375 64.898438 C 78.109375 64.898438 78.109375 66.382812 78.277344 66.488281 C 78.449219 66.59375 81.671875 69.355469 78.789062 70.839844 C 78.789062 70.839844 77.261719 70.945312 76.414062 69.460938 C 75.5625 67.972656 73.019531 66.488281 73.019531 66.488281 C 73.019531 66.488281 72.527344 65.746094 73.367188 65.796875 C 74.207031 65.851562 75.394531 64.578125 75.054688 64.152344 C 74.714844 63.730469 74.886719 63.304688 74.886719 63.304688 Z M 74.886719 63.304688 "/>
<path style=" stroke:none;fill-rule:nonzero;fill:rgb(100%,71.372549%,71.372549%);fill-opacity:1;" d="M 46.878906 49.441406 C 46.089844 49.230469 45.871094 48.433594 46.394531 47.65625 C 46.597656 47.347656 46.914062 47.070312 47.324219 46.851562 L 47.933594 45.976562 L 47.910156 45.964844 L 49.664062 41.59375 C 50.070312 40.578125 51.191406 39.722656 52.734375 39.3125 C 53.652344 39.066406 54.519531 39.023438 54.773438 39.609375 C 55.195312 40.578125 52.460938 43.703125 50.8125 45.460938 L 49.527344 47.429688 C 49.5625 47.765625 49.46875 48.101562 49.25 48.410156 C 48.730469 49.1875 47.667969 49.648438 46.878906 49.441406 Z M 46.878906 49.441406 "/>
<path style=" stroke:none;fill-rule:nonzero;fill:rgb(0%,48.235294%,100%);fill-opacity:1;" d="M 66.574219 29.132812 L 72.171875 29.238281 L 77.601562 30.722656 L 76.75 39.53125 C 76.75 39.53125 77.769531 41.546875 77.261719 41.867188 C 76.75 42.183594 77.261719 43.613281 76.921875 43.640625 C 76.582031 43.671875 76.921875 45.207031 76.921875 45.207031 C 76.921875 45.207031 72.171875 44.203125 68.101562 44.839844 C 64.027344 45.476562 62.671875 44.414062 62.671875 44.414062 C 62.671875 44.414062 61.652344 41.867188 61.652344 41.335938 L 61.652344 30.484375 Z M 66.574219 29.132812 "/>
<path style=" stroke:none;fill-rule:nonzero;fill:rgb(0%,48.235294%,100%);fill-opacity:1;" d="M 62.585938 30.457031 C 62.585938 30.457031 60.210938 30.035156 59.023438 31.09375 C 57.835938 32.15625 57.15625 32.15625 57.15625 33.535156 C 57.15625 33.535156 50.203125 39.691406 50.542969 40.328125 L 48.929688 41.972656 L 53 43.351562 C 53 43.351562 54.445312 42.449219 54.445312 41.601562 C 54.445312 40.753906 58.515625 38.417969 58.515625 38.417969 C 58.515625 38.417969 62.078125 35.550781 62.246094 34.492188 C 62.417969 33.429688 62.585938 30.457031 62.585938 30.457031 Z M 62.585938 30.457031 "/>
<path style=" stroke:none;fill-rule:nonzero;fill:rgb(100%,100%,100%);fill-opacity:1;" d="M 83.503906 49.980469 L 106.859375 49.980469 C 110.8125 49.980469 114.023438 51.988281 114.023438 54.460938 L 114.023438 66.183594 C 114.023438 68.65625 110.8125 70.664062 106.859375 70.664062 L 83.503906 70.664062 C 79.546875 70.664062 76.339844 68.65625 76.339844 66.183594 L 76.339844 54.460938 C 76.339844 51.988281 79.546875 49.980469 83.503906 49.980469 Z M 83.503906 49.980469 "/>
<path style=" stroke:none;fill-rule:nonzero;fill:rgb(24.705882%,23.921569%,33.72549%);fill-opacity:1;" d="M 76 66.078125 L 76 54.355469 C 76 51.828125 79.289062 49.769531 83.332031 49.769531 L 106.6875 49.769531 C 110.730469 49.769531 114.023438 51.828125 114.023438 54.355469 L 114.023438 66.078125 C 114.023438 68.605469 110.730469 70.664062 106.6875 70.664062 L 83.332031 70.664062 C 79.289062 70.664062 76 68.605469 76 66.078125 Z M 83.332031 49.980469 C 79.476562 49.980469 76.339844 51.945312 76.339844 54.355469 L 76.339844 66.078125 C 76.339844 68.488281 79.476562 70.453125 83.332031 70.453125 L 106.6875 70.453125 C 110.546875 70.453125 113.683594 68.488281 113.683594 66.078125 L 113.683594 54.355469 C 113.683594 51.945312 110.546875 49.980469 106.6875 49.980469 Z M 83.332031 49.980469 "/>
<path style=" stroke:none;fill-rule:nonzero;fill:rgb(91.764706%,26.27451%,20.784314%);fill-opacity:1;" d="M 98.152344 58.175781 L 98.730469 58.175781 L 100.371094 57.148438 L 100.453125 56.710938 C 97.394531 55.023438 92.730469 55.207031 90.03125 57.117188 C 89.285156 57.648438 88.738281 58.28125 88.441406 58.964844 C 88.625 58.917969 88.828125 58.910156 89.019531 58.941406 L 92.304688 58.605469 C 92.304688 58.605469 92.472656 58.429688 92.558594 58.441406 C 94.019531 57.4375 96.476562 57.320312 98.164062 58.175781 Z M 98.152344 58.175781 "/>
<path style=" stroke:none;fill-rule:nonzero;fill:rgb(25.882353%,52.156863%,95.686275%);fill-opacity:1;" d="M 102.710938 58.964844 C 102.335938 58.09375 101.558594 57.3125 100.480469 56.714844 L 98.175781 58.15625 C 99.148438 58.65625 99.703125 59.402344 99.679688 60.191406 L 99.679688 60.445312 C 100.8125 60.445312 101.730469 61.019531 101.730469 61.730469 C 101.730469 62.4375 100.8125 63.011719 99.679688 63.011719 L 95.578125 63.011719 L 95.167969 63.273438 L 95.167969 64.8125 L 95.578125 65.070312 L 99.679688 65.070312 C 102.628906 65.082031 105.035156 63.601562 105.058594 61.757812 C 105.074219 60.636719 104.191406 59.589844 102.710938 58.964844 Z M 102.710938 58.964844 "/>
<path style=" stroke:none;fill-rule:nonzero;fill:rgb(20.392157%,65.882353%,32.54902%);fill-opacity:1;" d="M 91.46875 65.054688 L 95.570312 65.054688 L 95.570312 63 L 91.46875 63 C 91.175781 63 90.886719 62.960938 90.621094 62.882812 L 90.042969 62.996094 L 88.390625 64.023438 L 88.246094 64.382812 C 89.175781 64.820312 90.304688 65.058594 91.46875 65.054688 Z M 91.46875 65.054688 "/>
<path style=" stroke:none;fill-rule:nonzero;fill:rgb(98.431373%,73.72549%,1.960784%);fill-opacity:1;" d="M 91.46875 58.386719 C 88.519531 58.398438 86.144531 59.902344 86.164062 61.746094 C 86.171875 62.777344 86.941406 63.746094 88.246094 64.371094 L 90.625 62.882812 C 89.59375 62.589844 89.136719 61.832031 89.601562 61.183594 C 90.070312 60.539062 91.285156 60.253906 92.316406 60.542969 C 92.769531 60.671875 93.136719 60.902344 93.339844 61.183594 L 95.722656 59.695312 C 94.707031 58.867188 93.136719 58.382812 91.46875 58.386719 Z M 91.46875 58.386719 "/>
<path style=" stroke:none;fill-rule:nonzero;fill:rgb(100%,71.372549%,71.372549%);fill-opacity:1;" d="M 81.007812 51.839844 C 81.863281 51.8125 82.5 51.109375 82.425781 50.269531 C 82.40625 49.929688 82.257812 49.601562 81.992188 49.3125 L 81.894531 48.359375 L 81.917969 48.355469 L 82.640625 43.871094 C 82.808594 42.828125 82.21875 41.785156 80.992188 41.070312 C 80.261719 40.648438 79.46875 40.421875 78.910156 40.917969 C 77.992188 41.738281 78.867188 45.257812 79.464844 47.261719 L 79.605469 49.390625 C 79.390625 49.699219 79.296875 50.035156 79.332031 50.371094 C 79.402344 51.210938 80.152344 51.867188 81.007812 51.839844 Z M 81.007812 51.839844 "/>
<path style=" stroke:none;fill-rule:nonzero;fill:rgb(0%,48.235294%,100%);fill-opacity:1;" d="M 76.527344 30.652344 C 76.527344 30.652344 78.992188 30.753906 79.53125 32.007812 C 80.074219 33.257812 80.710938 33.402344 79.964844 34.699219 C 79.964844 34.699219 83.167969 41.964844 82.503906 42.492188 L 83.125 44.382812 L 78.546875 44.816406 C 78.546875 44.816406 77.679688 43.660156 78.140625 42.863281 C 78.601562 42.0625 76.039062 39.003906 76.039062 39.003906 C 76.039062 39.003906 74.242188 35.550781 74.660156 34.515625 C 75.074219 33.480469 76.527344 30.652344 76.527344 30.652344 Z M 76.527344 30.652344 "/>
</g>
</svg>
