<?xml version="1.0" encoding="UTF-8"?>
<svg xmlns="http://www.w3.org/2000/svg" xmlns:xlink="http://www.w3.org/1999/xlink" width="113px" height="71px" viewBox="0 0 113 71" version="1.1">
<defs>
<filter id="alpha" filterUnits="objectBoundingBox" x="0%" y="0%" width="100%" height="100%">
  <feColorMatrix type="matrix" in="SourceGraphic" values="0 0 0 0 1 0 0 0 0 1 0 0 0 0 1 0 0 0 1 0"/>
</filter>
<mask id="mask0">
  <g filter="url(#alpha)">
<rect x="0" y="0" width="113" height="71" style="fill:rgb(0%,0%,0%);fill-opacity:0.2;stroke:none;"/>
  </g>
</mask>
<clipPath id="clip1">
  <rect x="0" y="0" width="114" height="71"/>
</clipPath>
<g id="surface5" clip-path="url(#clip1)">
<path style=" stroke:none;fill-rule:nonzero;fill:rgb(0%,0%,0%);fill-opacity:1;" d="M 78.109375 57.277344 C 78.105469 57.492188 78.105469 57.796875 78.09375 58.171875 C 78.089844 58.226562 78.089844 58.277344 78.085938 58.332031 C 78.074219 58.863281 78.050781 59.511719 78.019531 60.25 C 78.019531 60.292969 78.019531 60.335938 78.015625 60.382812 C 77.976562 61.28125 77.910156 62.328125 77.800781 63.984375 C 77.601562 67.046875 77.246094 64.40625 76.890625 65.476562 C 75.90625 64.953125 74.828125 64.40625 73.671875 63.84375 C 73.464844 63.742188 73.253906 63.636719 73.042969 63.535156 C 70.734375 62.421875 68.15625 61.253906 65.460938 60.101562 C 65.355469 60.054688 65.25 60.007812 65.144531 59.964844 C 58.976562 57.328125 52.246094 54.765625 46.792969 53.054688 C 45.738281 52.722656 44.734375 52.425781 43.789062 52.164062 C 41.800781 51.613281 40.078125 51.230469 38.753906 51.0625 C 37.375 50.890625 36.425781 50.953125 36.039062 51.3125 C 36.023438 51.058594 36.011719 50.816406 35.996094 50.582031 C 35.988281 50.507812 35.984375 50.429688 35.976562 50.355469 C 35.988281 50.335938 36 50.316406 36.007812 50.296875 C 36.011719 50.292969 36.011719 50.289062 36.015625 50.289062 C 36.015625 50.28125 36.019531 50.273438 36.023438 50.269531 C 36.027344 50.261719 36.03125 50.253906 36.039062 50.246094 C 36.042969 50.238281 36.046875 50.230469 36.054688 50.222656 C 36.070312 50.203125 36.082031 50.1875 36.097656 50.167969 C 36.109375 50.15625 36.121094 50.144531 36.136719 50.132812 C 36.140625 50.125 36.144531 50.121094 36.152344 50.117188 C 36.15625 50.109375 36.164062 50.105469 36.171875 50.097656 C 36.171875 50.09375 36.175781 50.089844 36.183594 50.089844 C 36.191406 50.078125 36.207031 50.066406 36.21875 50.058594 C 36.269531 50.015625 36.324219 49.980469 36.382812 49.945312 C 36.402344 49.933594 36.425781 49.921875 36.445312 49.910156 C 36.589844 49.835938 36.742188 49.773438 36.898438 49.722656 C 36.953125 49.703125 37.007812 49.6875 37.066406 49.671875 C 37.089844 49.667969 37.109375 49.660156 37.132812 49.652344 C 37.164062 49.644531 37.195312 49.636719 37.226562 49.628906 C 37.390625 49.585938 37.566406 49.550781 37.757812 49.519531 C 37.816406 49.507812 37.875 49.5 37.9375 49.488281 C 37.984375 49.480469 38.035156 49.476562 38.085938 49.46875 C 38.511719 49.410156 38.996094 49.367188 39.53125 49.335938 C 39.582031 49.335938 39.628906 49.332031 39.679688 49.328125 C 39.738281 49.328125 39.796875 49.324219 39.859375 49.320312 C 39.910156 49.320312 39.960938 49.320312 40.011719 49.316406 C 40.0625 49.316406 40.113281 49.3125 40.167969 49.3125 C 40.3125 49.308594 40.460938 49.304688 40.613281 49.300781 C 41.046875 49.296875 41.503906 49.296875 41.984375 49.308594 C 42.207031 49.3125 42.433594 49.316406 42.667969 49.324219 C 42.679688 49.324219 42.695312 49.328125 42.710938 49.328125 C 42.914062 49.332031 43.117188 49.339844 43.328125 49.347656 C 43.472656 49.355469 43.621094 49.363281 43.769531 49.371094 C 43.90625 49.375 44.046875 49.382812 44.191406 49.394531 C 44.300781 49.398438 44.410156 49.40625 44.523438 49.410156 C 44.617188 49.417969 44.714844 49.425781 44.808594 49.429688 C 44.921875 49.4375 45.035156 49.445312 45.148438 49.453125 C 45.308594 49.460938 45.464844 49.472656 45.625 49.484375 C 45.785156 49.496094 45.949219 49.507812 46.109375 49.523438 C 46.273438 49.535156 46.4375 49.546875 46.601562 49.5625 C 46.617188 49.5625 46.632812 49.5625 46.648438 49.566406 C 46.796875 49.578125 46.949219 49.589844 47.097656 49.605469 C 47.933594 49.679688 48.792969 49.765625 49.679688 49.863281 C 50.207031 49.921875 50.742188 49.984375 51.285156 50.050781 C 52.105469 50.148438 52.941406 50.257812 53.785156 50.375 C 54.625 50.492188 55.472656 50.617188 56.328125 50.75 C 56.542969 50.785156 56.757812 50.816406 56.972656 50.851562 C 57.238281 50.894531 57.503906 50.9375 57.765625 50.980469 C 57.933594 51.007812 58.101562 51.035156 58.265625 51.0625 C 58.464844 51.097656 58.664062 51.128906 58.863281 51.164062 C 60.167969 51.386719 61.464844 51.625 62.730469 51.875 C 62.941406 51.917969 63.148438 51.957031 63.355469 52 C 63.769531 52.082031 64.179688 52.167969 64.585938 52.253906 C 64.695312 52.277344 64.804688 52.300781 64.917969 52.324219 C 65.195312 52.382812 65.46875 52.441406 65.738281 52.503906 C 65.753906 52.507812 65.769531 52.511719 65.789062 52.511719 C 65.984375 52.558594 66.183594 52.601562 66.378906 52.644531 C 66.839844 52.75 67.292969 52.855469 67.738281 52.960938 C 68.03125 53.03125 68.324219 53.101562 68.613281 53.175781 C 69.046875 53.285156 69.46875 53.394531 69.882812 53.503906 C 69.984375 53.53125 70.085938 53.558594 70.1875 53.582031 C 70.488281 53.664062 70.785156 53.746094 71.074219 53.828125 C 71.304688 53.890625 71.527344 53.957031 71.75 54.023438 C 71.96875 54.089844 72.1875 54.15625 72.398438 54.222656 C 72.539062 54.265625 72.671875 54.308594 72.804688 54.347656 C 73 54.410156 73.191406 54.472656 73.378906 54.535156 C 73.433594 54.554688 73.492188 54.574219 73.546875 54.59375 C 73.652344 54.628906 73.753906 54.664062 73.855469 54.699219 C 73.921875 54.722656 73.988281 54.746094 74.054688 54.769531 C 74.117188 54.792969 74.183594 54.816406 74.246094 54.839844 C 74.3125 54.863281 74.375 54.886719 74.4375 54.910156 C 74.492188 54.929688 74.542969 54.949219 74.59375 54.96875 C 74.695312 55.007812 74.796875 55.046875 74.894531 55.085938 C 74.945312 55.105469 74.992188 55.125 75.042969 55.144531 L 75.15625 55.191406 C 75.171875 55.195312 75.1875 55.203125 75.203125 55.210938 C 75.324219 55.257812 75.441406 55.308594 75.558594 55.359375 C 75.664062 55.40625 75.769531 55.453125 75.871094 55.5 C 75.988281 55.554688 76.101562 55.605469 76.210938 55.660156 C 76.234375 55.671875 76.253906 55.683594 76.277344 55.691406 C 76.347656 55.726562 76.417969 55.765625 76.488281 55.800781 C 76.628906 55.875 76.757812 55.945312 76.878906 56.019531 C 77 56.089844 77.113281 56.160156 77.21875 56.230469 C 77.21875 56.234375 77.21875 56.234375 77.21875 56.234375 C 77.269531 56.269531 77.320312 56.304688 77.363281 56.335938 C 77.4375 56.390625 77.507812 56.445312 77.570312 56.5 C 77.59375 56.515625 77.613281 56.535156 77.632812 56.554688 C 77.640625 56.558594 77.648438 56.566406 77.65625 56.574219 C 77.683594 56.601562 77.714844 56.628906 77.742188 56.660156 C 77.777344 56.695312 77.808594 56.730469 77.839844 56.761719 C 77.855469 56.78125 77.871094 56.796875 77.882812 56.816406 C 77.898438 56.835938 77.917969 56.859375 77.929688 56.878906 C 77.945312 56.898438 77.957031 56.917969 77.96875 56.933594 C 77.996094 56.976562 78.023438 57.023438 78.046875 57.074219 C 78.0625 57.105469 78.074219 57.140625 78.082031 57.175781 C 78.09375 57.207031 78.101562 57.242188 78.109375 57.277344 Z M 78.109375 57.277344 "/>
</g>
</defs>
<g id="surface1">
<path style=" stroke:none;fill-rule:nonzero;fill:rgb(94.901961%,94.901961%,94.901961%);fill-opacity:1;" d="M 69.640625 9.207031 C 69.640625 11.039062 67.925781 12.523438 65.808594 12.523438 C 63.691406 12.523438 61.972656 11.039062 61.972656 9.207031 C 61.972656 7.378906 63.691406 5.894531 65.808594 5.894531 C 67.925781 5.894531 69.640625 7.378906 69.640625 9.207031 Z M 69.640625 9.207031 "/>
<path style=" stroke:none;fill-rule:nonzero;fill:rgb(94.901961%,94.901961%,94.901961%);fill-opacity:1;" d="M 95.546875 61.710938 C 101.246094 57.957031 103.96875 51.652344 102.261719 45.636719 C 102.222656 45.488281 102.175781 45.339844 102.128906 45.191406 C 101 41.621094 98.203125 38.226562 94.132812 37.085938 C 90.710938 36.128906 86.976562 36.863281 83.410156 36.484375 C 76.40625 35.734375 70.976562 30.835938 67.15625 25.707031 C 63.335938 20.578125 60.398438 14.835938 55.320312 10.597656 C 46.953125 3.613281 33.300781 2.109375 22.925781 6.65625 C 12.546875 11.203125 5.9375 21.289062 6.222656 31.34375 C 6.503906 41.398438 13.40625 51.007812 23.433594 56.109375 C 27.117188 57.980469 31.375 59.308594 35.617188 58.84375 C 39.292969 58.441406 42.636719 56.734375 46.296875 56.226562 C 52.054688 55.429688 57.773438 57.679688 62.753906 60.300781 C 67.730469 62.921875 72.542969 66.03125 78.199219 67.246094 C 83.691406 68.425781 90.5 65.035156 95.546875 61.710938 Z M 95.546875 61.710938 "/>
<path style=" stroke:none;fill-rule:nonzero;fill:rgb(24.705882%,23.921569%,33.72549%);fill-opacity:1;" d="M 87.359375 6.867188 C 87.234375 6.792969 87.109375 6.726562 86.984375 6.65625 C 83.371094 4.660156 79.503906 3.039062 75.453125 1.824219 L 74.511719 13.023438 L 68.558594 13.023438 L 68.558594 0.191406 C 68.1875 0.121094 67.808594 0.0585938 67.429688 0 L 67.429688 13.023438 L 60.355469 13.023438 C 52.246094 13.023438 45.671875 7.339844 45.671875 0.328125 C 45.292969 0.398438 44.917969 0.476562 44.539062 0.554688 L 44.539062 13.023438 L 38.777344 13.023438 L 37.882812 2.34375 C 33.722656 3.722656 29.769531 5.539062 26.117188 7.746094 C 26.054688 7.785156 25.992188 7.824219 25.929688 7.859375 C 25.613281 8.054688 25.300781 8.25 24.988281 8.449219 L 24.988281 51.171875 L 41.96875 51.171875 L 41.671875 47.578125 L 40.019531 27.847656 L 73.269531 27.847656 L 71.621094 47.578125 L 71.320312 51.171875 L 88.113281 51.171875 L 88.113281 7.296875 C 87.863281 7.152344 87.613281 7.007812 87.359375 6.867188 Z M 44.539062 24.589844 L 39.746094 24.589844 L 38.859375 14 L 44.539062 14 Z M 67.429688 24.589844 L 59.378906 24.589844 L 59.378906 24.378906 C 59.378906 24.175781 59.285156 23.980469 59.117188 23.835938 C 58.949219 23.691406 58.726562 23.613281 58.488281 23.613281 L 54.988281 23.613281 C 54.5 23.613281 54.101562 23.957031 54.101562 24.378906 L 54.101562 24.589844 L 45.671875 24.589844 L 45.671875 14 L 67.429688 14 Z M 68.558594 24.589844 L 68.558594 14 L 74.429688 14 L 73.546875 24.589844 Z M 68.558594 24.589844 "/>
<path style=" stroke:none;fill-rule:nonzero;fill:rgb(24.705882%,23.921569%,33.72549%);fill-opacity:1;" d="M 0 53.90625 C 1.246094 55.183594 2.597656 56.386719 4.039062 57.5 L 108.9375 57.625 C 110.378906 56.507812 111.726562 55.308594 112.972656 54.03125 Z M 0 53.90625 "/>
<path style=" stroke:none;fill-rule:nonzero;fill:rgb(24.705882%,23.921569%,33.72549%);fill-opacity:1;" d="M 71.136719 42.398438 L 71.136719 53.039062 C 71.136719 53.320312 71.398438 53.550781 71.726562 53.550781 L 89.960938 53.550781 C 90.289062 53.550781 90.554688 53.320312 90.554688 53.039062 L 90.554688 42.398438 C 90.554688 42.117188 90.289062 41.890625 89.960938 41.890625 L 71.726562 41.890625 C 71.402344 41.890625 71.136719 42.117188 71.136719 42.398438 Z M 71.136719 42.398438 "/>
<path style=" stroke:none;fill-rule:nonzero;fill:rgb(0%,48.235294%,100%);fill-opacity:1;" d="M 71.5625 42.53125 L 71.5625 52.90625 C 71.5625 53.058594 71.703125 53.179688 71.878906 53.179688 L 89.8125 53.179688 C 89.984375 53.179688 90.125 53.058594 90.125 52.90625 L 90.125 42.53125 C 90.125 42.382812 89.984375 42.257812 89.8125 42.257812 L 71.878906 42.257812 C 71.703125 42.257812 71.5625 42.382812 71.5625 42.53125 Z M 71.5625 42.53125 "/>
<path style=" stroke:none;fill-rule:nonzero;fill:rgb(18.431373%,18.039216%,25.490196%);fill-opacity:1;" d="M 70.753906 55.113281 C 70.820312 55.1875 70.925781 55.230469 71.03125 55.230469 L 90.558594 55.230469 C 90.667969 55.226562 90.769531 55.1875 90.835938 55.113281 C 90.90625 55.039062 90.933594 54.945312 90.910156 54.855469 L 90.605469 53.609375 C 90.582031 53.507812 90.496094 53.421875 90.382812 53.382812 C 90.34375 53.371094 90.300781 53.363281 90.257812 53.363281 L 71.335938 53.363281 C 71.292969 53.363281 71.25 53.371094 71.207031 53.382812 C 71.09375 53.421875 71.007812 53.507812 70.984375 53.609375 L 70.679688 54.855469 C 70.660156 54.945312 70.6875 55.039062 70.753906 55.113281 Z M 70.753906 55.113281 "/>
<path style=" stroke:none;fill-rule:nonzero;fill:rgb(24.705882%,23.921569%,33.72549%);fill-opacity:1;" d="M 90.046875 53.898438 L 89.585938 53.898438 C 89.546875 53.898438 89.515625 53.871094 89.515625 53.839844 L 89.515625 53.648438 C 89.515625 53.613281 89.546875 53.585938 89.585938 53.585938 L 90.046875 53.585938 C 90.085938 53.585938 90.117188 53.613281 90.117188 53.648438 L 90.117188 53.839844 C 90.117188 53.871094 90.085938 53.898438 90.046875 53.898438 Z M 90.046875 53.898438 "/>
<path style=" stroke:none;fill-rule:nonzero;fill:rgb(24.705882%,23.921569%,33.72549%);fill-opacity:1;" d="M 88.84375 53.898438 L 88.382812 53.898438 C 88.34375 53.898438 88.3125 53.871094 88.3125 53.839844 L 88.3125 53.648438 C 88.3125 53.613281 88.34375 53.585938 88.382812 53.585938 L 88.84375 53.585938 C 88.882812 53.585938 88.914062 53.613281 88.914062 53.648438 L 88.914062 53.839844 C 88.914062 53.871094 88.882812 53.898438 88.84375 53.898438 Z M 88.84375 53.898438 "/>
<path style=" stroke:none;fill-rule:nonzero;fill:rgb(24.705882%,23.921569%,33.72549%);fill-opacity:1;" d="M 87.640625 53.898438 L 87.179688 53.898438 C 87.140625 53.898438 87.109375 53.871094 87.109375 53.839844 L 87.109375 53.648438 C 87.109375 53.613281 87.140625 53.585938 87.179688 53.585938 L 87.640625 53.585938 C 87.679688 53.585938 87.710938 53.613281 87.710938 53.648438 L 87.710938 53.839844 C 87.710938 53.871094 87.679688 53.898438 87.640625 53.898438 Z M 87.640625 53.898438 "/>
<path style=" stroke:none;fill-rule:nonzero;fill:rgb(24.705882%,23.921569%,33.72549%);fill-opacity:1;" d="M 86.4375 53.898438 L 85.976562 53.898438 C 85.9375 53.898438 85.90625 53.871094 85.90625 53.839844 L 85.90625 53.648438 C 85.90625 53.613281 85.9375 53.585938 85.976562 53.585938 L 86.4375 53.585938 C 86.476562 53.585938 86.507812 53.613281 86.507812 53.648438 L 86.507812 53.839844 C 86.507812 53.871094 86.476562 53.898438 86.4375 53.898438 Z M 86.4375 53.898438 "/>
<path style=" stroke:none;fill-rule:nonzero;fill:rgb(24.705882%,23.921569%,33.72549%);fill-opacity:1;" d="M 85.234375 53.898438 L 84.773438 53.898438 C 84.734375 53.898438 84.703125 53.871094 84.703125 53.839844 L 84.703125 53.648438 C 84.703125 53.613281 84.734375 53.585938 84.773438 53.585938 L 85.234375 53.585938 C 85.273438 53.585938 85.304688 53.613281 85.304688 53.648438 L 85.304688 53.839844 C 85.304688 53.871094 85.273438 53.898438 85.234375 53.898438 Z M 85.234375 53.898438 "/>
<path style=" stroke:none;fill-rule:nonzero;fill:rgb(24.705882%,23.921569%,33.72549%);fill-opacity:1;" d="M 84.035156 53.898438 L 83.570312 53.898438 C 83.535156 53.898438 83.503906 53.871094 83.503906 53.839844 L 83.503906 53.648438 C 83.503906 53.613281 83.535156 53.585938 83.570312 53.585938 L 84.035156 53.585938 C 84.070312 53.585938 84.101562 53.613281 84.101562 53.648438 L 84.101562 53.839844 C 84.101562 53.871094 84.070312 53.898438 84.035156 53.898438 Z M 84.035156 53.898438 "/>
<path style=" stroke:none;fill-rule:nonzero;fill:rgb(24.705882%,23.921569%,33.72549%);fill-opacity:1;" d="M 82.832031 53.898438 L 82.371094 53.898438 C 82.332031 53.898438 82.300781 53.871094 82.300781 53.839844 L 82.300781 53.648438 C 82.300781 53.613281 82.332031 53.585938 82.371094 53.585938 L 82.832031 53.585938 C 82.871094 53.585938 82.902344 53.613281 82.902344 53.648438 L 82.902344 53.839844 C 82.902344 53.871094 82.871094 53.898438 82.832031 53.898438 Z M 82.832031 53.898438 "/>
<path style=" stroke:none;fill-rule:nonzero;fill:rgb(24.705882%,23.921569%,33.72549%);fill-opacity:1;" d="M 81.628906 53.898438 L 81.167969 53.898438 C 81.128906 53.898438 81.097656 53.871094 81.097656 53.839844 L 81.097656 53.648438 C 81.097656 53.613281 81.128906 53.585938 81.167969 53.585938 L 81.628906 53.585938 C 81.667969 53.585938 81.699219 53.613281 81.699219 53.648438 L 81.699219 53.839844 C 81.699219 53.871094 81.667969 53.898438 81.628906 53.898438 Z M 81.628906 53.898438 "/>
<path style=" stroke:none;fill-rule:nonzero;fill:rgb(24.705882%,23.921569%,33.72549%);fill-opacity:1;" d="M 80.425781 53.898438 L 79.964844 53.898438 C 79.925781 53.898438 79.894531 53.871094 79.894531 53.839844 L 79.894531 53.648438 C 79.894531 53.613281 79.925781 53.585938 79.964844 53.585938 L 80.425781 53.585938 C 80.464844 53.585938 80.496094 53.613281 80.496094 53.648438 L 80.496094 53.839844 C 80.496094 53.871094 80.464844 53.898438 80.425781 53.898438 Z M 80.425781 53.898438 "/>
<path style=" stroke:none;fill-rule:nonzero;fill:rgb(24.705882%,23.921569%,33.72549%);fill-opacity:1;" d="M 79.222656 53.898438 L 78.761719 53.898438 C 78.722656 53.898438 78.691406 53.871094 78.691406 53.839844 L 78.691406 53.648438 C 78.691406 53.613281 78.722656 53.585938 78.761719 53.585938 L 79.222656 53.585938 C 79.261719 53.585938 79.292969 53.613281 79.292969 53.648438 L 79.292969 53.839844 C 79.292969 53.871094 79.261719 53.898438 79.222656 53.898438 Z M 79.222656 53.898438 "/>
<path style=" stroke:none;fill-rule:nonzero;fill:rgb(24.705882%,23.921569%,33.72549%);fill-opacity:1;" d="M 78.019531 53.898438 L 77.558594 53.898438 C 77.519531 53.898438 77.488281 53.871094 77.488281 53.839844 L 77.488281 53.648438 C 77.488281 53.613281 77.519531 53.585938 77.558594 53.585938 L 78.019531 53.585938 C 78.058594 53.585938 78.089844 53.613281 78.089844 53.648438 L 78.089844 53.839844 C 78.089844 53.871094 78.058594 53.898438 78.019531 53.898438 Z M 78.019531 53.898438 "/>
<path style=" stroke:none;fill-rule:nonzero;fill:rgb(24.705882%,23.921569%,33.72549%);fill-opacity:1;" d="M 76.816406 53.898438 L 76.355469 53.898438 C 76.316406 53.898438 76.285156 53.871094 76.285156 53.839844 L 76.285156 53.648438 C 76.285156 53.613281 76.316406 53.585938 76.355469 53.585938 L 76.816406 53.585938 C 76.855469 53.585938 76.886719 53.613281 76.886719 53.648438 L 76.886719 53.839844 C 76.886719 53.871094 76.855469 53.898438 76.816406 53.898438 Z M 76.816406 53.898438 "/>
<path style=" stroke:none;fill-rule:nonzero;fill:rgb(24.705882%,23.921569%,33.72549%);fill-opacity:1;" d="M 75.613281 53.898438 L 75.152344 53.898438 C 75.113281 53.898438 75.082031 53.871094 75.082031 53.839844 L 75.082031 53.648438 C 75.082031 53.613281 75.113281 53.585938 75.152344 53.585938 L 75.613281 53.585938 C 75.652344 53.585938 75.683594 53.613281 75.683594 53.648438 L 75.683594 53.839844 C 75.683594 53.871094 75.652344 53.898438 75.613281 53.898438 Z M 75.613281 53.898438 "/>
<path style=" stroke:none;fill-rule:nonzero;fill:rgb(24.705882%,23.921569%,33.72549%);fill-opacity:1;" d="M 74.410156 53.898438 L 73.949219 53.898438 C 73.910156 53.898438 73.878906 53.871094 73.878906 53.839844 L 73.878906 53.648438 C 73.878906 53.613281 73.910156 53.585938 73.949219 53.585938 L 74.410156 53.585938 C 74.449219 53.585938 74.480469 53.613281 74.480469 53.648438 L 74.480469 53.839844 C 74.480469 53.871094 74.449219 53.898438 74.410156 53.898438 Z M 74.410156 53.898438 "/>
<path style=" stroke:none;fill-rule:nonzero;fill:rgb(24.705882%,23.921569%,33.72549%);fill-opacity:1;" d="M 73.207031 53.898438 L 72.746094 53.898438 C 72.707031 53.898438 72.675781 53.871094 72.675781 53.839844 L 72.675781 53.648438 C 72.675781 53.613281 72.707031 53.585938 72.746094 53.585938 L 73.207031 53.585938 C 73.246094 53.585938 73.277344 53.613281 73.277344 53.648438 L 73.277344 53.839844 C 73.277344 53.871094 73.246094 53.898438 73.207031 53.898438 Z M 73.207031 53.898438 "/>
<path style=" stroke:none;fill-rule:nonzero;fill:rgb(24.705882%,23.921569%,33.72549%);fill-opacity:1;" d="M 72.003906 53.898438 L 71.542969 53.898438 C 71.503906 53.898438 71.472656 53.871094 71.472656 53.839844 L 71.472656 53.648438 C 71.472656 53.613281 71.503906 53.585938 71.542969 53.585938 L 72.003906 53.585938 C 72.042969 53.585938 72.074219 53.613281 72.074219 53.648438 L 72.074219 53.839844 C 72.074219 53.871094 72.042969 53.898438 72.003906 53.898438 Z M 72.003906 53.898438 "/>
<path style=" stroke:none;fill-rule:nonzero;fill:rgb(24.705882%,23.921569%,33.72549%);fill-opacity:1;" d="M 90.0625 54.417969 L 89.601562 54.417969 C 89.5625 54.417969 89.53125 54.390625 89.53125 54.359375 L 89.53125 54.167969 C 89.53125 54.132812 89.5625 54.105469 89.601562 54.105469 L 90.0625 54.105469 C 90.101562 54.105469 90.132812 54.132812 90.132812 54.167969 L 90.132812 54.359375 C 90.132812 54.390625 90.101562 54.417969 90.0625 54.417969 Z M 90.0625 54.417969 "/>
<path style=" stroke:none;fill-rule:nonzero;fill:rgb(24.705882%,23.921569%,33.72549%);fill-opacity:1;" d="M 88.859375 54.417969 L 88.398438 54.417969 C 88.359375 54.417969 88.328125 54.390625 88.328125 54.359375 L 88.328125 54.167969 C 88.328125 54.132812 88.359375 54.105469 88.398438 54.105469 L 88.859375 54.105469 C 88.898438 54.105469 88.929688 54.132812 88.929688 54.167969 L 88.929688 54.359375 C 88.929688 54.390625 88.898438 54.417969 88.859375 54.417969 Z M 88.859375 54.417969 "/>
<path style=" stroke:none;fill-rule:nonzero;fill:rgb(24.705882%,23.921569%,33.72549%);fill-opacity:1;" d="M 87.65625 54.417969 L 87.195312 54.417969 C 87.15625 54.417969 87.125 54.390625 87.125 54.359375 L 87.125 54.167969 C 87.125 54.132812 87.15625 54.105469 87.195312 54.105469 L 87.65625 54.105469 C 87.695312 54.105469 87.726562 54.132812 87.726562 54.167969 L 87.726562 54.359375 C 87.726562 54.390625 87.695312 54.417969 87.65625 54.417969 Z M 87.65625 54.417969 "/>
<path style=" stroke:none;fill-rule:nonzero;fill:rgb(24.705882%,23.921569%,33.72549%);fill-opacity:1;" d="M 86.453125 54.417969 L 85.992188 54.417969 C 85.953125 54.417969 85.921875 54.390625 85.921875 54.359375 L 85.921875 54.167969 C 85.921875 54.132812 85.953125 54.105469 85.992188 54.105469 L 86.453125 54.105469 C 86.492188 54.105469 86.523438 54.132812 86.523438 54.167969 L 86.523438 54.359375 C 86.523438 54.390625 86.492188 54.417969 86.453125 54.417969 Z M 86.453125 54.417969 "/>
<path style=" stroke:none;fill-rule:nonzero;fill:rgb(24.705882%,23.921569%,33.72549%);fill-opacity:1;" d="M 85.25 54.417969 L 84.789062 54.417969 C 84.75 54.417969 84.71875 54.390625 84.71875 54.359375 L 84.71875 54.167969 C 84.71875 54.132812 84.75 54.105469 84.789062 54.105469 L 85.25 54.105469 C 85.289062 54.105469 85.320312 54.132812 85.320312 54.167969 L 85.320312 54.359375 C 85.320312 54.390625 85.289062 54.417969 85.25 54.417969 Z M 85.25 54.417969 "/>
<path style=" stroke:none;fill-rule:nonzero;fill:rgb(24.705882%,23.921569%,33.72549%);fill-opacity:1;" d="M 84.046875 54.417969 L 83.585938 54.417969 C 83.546875 54.417969 83.515625 54.390625 83.515625 54.359375 L 83.515625 54.167969 C 83.515625 54.132812 83.546875 54.105469 83.585938 54.105469 L 84.046875 54.105469 C 84.085938 54.105469 84.117188 54.132812 84.117188 54.167969 L 84.117188 54.359375 C 84.117188 54.390625 84.085938 54.417969 84.046875 54.417969 Z M 84.046875 54.417969 "/>
<path style=" stroke:none;fill-rule:nonzero;fill:rgb(24.705882%,23.921569%,33.72549%);fill-opacity:1;" d="M 82.84375 54.417969 L 82.382812 54.417969 C 82.34375 54.417969 82.3125 54.390625 82.3125 54.359375 L 82.3125 54.167969 C 82.3125 54.132812 82.34375 54.105469 82.382812 54.105469 L 82.84375 54.105469 C 82.882812 54.105469 82.914062 54.132812 82.914062 54.167969 L 82.914062 54.359375 C 82.914062 54.390625 82.882812 54.417969 82.84375 54.417969 Z M 82.84375 54.417969 "/>
<path style=" stroke:none;fill-rule:nonzero;fill:rgb(24.705882%,23.921569%,33.72549%);fill-opacity:1;" d="M 81.640625 54.417969 L 81.179688 54.417969 C 81.140625 54.417969 81.109375 54.390625 81.109375 54.359375 L 81.109375 54.167969 C 81.109375 54.132812 81.140625 54.105469 81.179688 54.105469 L 81.640625 54.105469 C 81.679688 54.105469 81.710938 54.132812 81.710938 54.167969 L 81.710938 54.359375 C 81.710938 54.390625 81.679688 54.417969 81.640625 54.417969 Z M 81.640625 54.417969 "/>
<path style=" stroke:none;fill-rule:nonzero;fill:rgb(24.705882%,23.921569%,33.72549%);fill-opacity:1;" d="M 80.4375 54.417969 L 79.976562 54.417969 C 79.9375 54.417969 79.90625 54.390625 79.90625 54.359375 L 79.90625 54.167969 C 79.90625 54.132812 79.9375 54.105469 79.976562 54.105469 L 80.4375 54.105469 C 80.476562 54.105469 80.507812 54.132812 80.507812 54.167969 L 80.507812 54.359375 C 80.507812 54.390625 80.476562 54.417969 80.4375 54.417969 Z M 80.4375 54.417969 "/>
<path style=" stroke:none;fill-rule:nonzero;fill:rgb(24.705882%,23.921569%,33.72549%);fill-opacity:1;" d="M 79.238281 54.417969 L 78.773438 54.417969 C 78.738281 54.417969 78.707031 54.390625 78.707031 54.359375 L 78.707031 54.167969 C 78.707031 54.132812 78.738281 54.105469 78.773438 54.105469 L 79.238281 54.105469 C 79.273438 54.105469 79.304688 54.132812 79.304688 54.167969 L 79.304688 54.359375 C 79.304688 54.390625 79.273438 54.417969 79.238281 54.417969 Z M 79.238281 54.417969 "/>
<path style=" stroke:none;fill-rule:nonzero;fill:rgb(24.705882%,23.921569%,33.72549%);fill-opacity:1;" d="M 78.035156 54.417969 L 77.574219 54.417969 C 77.535156 54.417969 77.503906 54.390625 77.503906 54.359375 L 77.503906 54.167969 C 77.503906 54.132812 77.535156 54.105469 77.574219 54.105469 L 78.035156 54.105469 C 78.074219 54.105469 78.105469 54.132812 78.105469 54.167969 L 78.105469 54.359375 C 78.105469 54.390625 78.074219 54.417969 78.035156 54.417969 Z M 78.035156 54.417969 "/>
<path style=" stroke:none;fill-rule:nonzero;fill:rgb(24.705882%,23.921569%,33.72549%);fill-opacity:1;" d="M 76.832031 54.417969 L 76.371094 54.417969 C 76.332031 54.417969 76.300781 54.390625 76.300781 54.359375 L 76.300781 54.167969 C 76.300781 54.132812 76.332031 54.105469 76.371094 54.105469 L 76.832031 54.105469 C 76.871094 54.105469 76.902344 54.132812 76.902344 54.167969 L 76.902344 54.359375 C 76.902344 54.390625 76.871094 54.417969 76.832031 54.417969 Z M 76.832031 54.417969 "/>
<path style=" stroke:none;fill-rule:nonzero;fill:rgb(24.705882%,23.921569%,33.72549%);fill-opacity:1;" d="M 75.628906 54.417969 L 75.167969 54.417969 C 75.128906 54.417969 75.097656 54.390625 75.097656 54.359375 L 75.097656 54.167969 C 75.097656 54.132812 75.128906 54.105469 75.167969 54.105469 L 75.628906 54.105469 C 75.667969 54.105469 75.699219 54.132812 75.699219 54.167969 L 75.699219 54.359375 C 75.699219 54.390625 75.667969 54.417969 75.628906 54.417969 Z M 75.628906 54.417969 "/>
<path style=" stroke:none;fill-rule:nonzero;fill:rgb(24.705882%,23.921569%,33.72549%);fill-opacity:1;" d="M 74.425781 54.417969 L 73.964844 54.417969 C 73.925781 54.417969 73.894531 54.390625 73.894531 54.359375 L 73.894531 54.167969 C 73.894531 54.132812 73.925781 54.105469 73.964844 54.105469 L 74.425781 54.105469 C 74.464844 54.105469 74.496094 54.132812 74.496094 54.167969 L 74.496094 54.359375 C 74.496094 54.390625 74.464844 54.417969 74.425781 54.417969 Z M 74.425781 54.417969 "/>
<path style=" stroke:none;fill-rule:nonzero;fill:rgb(24.705882%,23.921569%,33.72549%);fill-opacity:1;" d="M 73.222656 54.417969 L 72.761719 54.417969 C 72.722656 54.417969 72.691406 54.390625 72.691406 54.359375 L 72.691406 54.167969 C 72.691406 54.132812 72.722656 54.105469 72.761719 54.105469 L 73.222656 54.105469 C 73.261719 54.105469 73.292969 54.132812 73.292969 54.167969 L 73.292969 54.359375 C 73.292969 54.390625 73.261719 54.417969 73.222656 54.417969 Z M 73.222656 54.417969 "/>
<path style=" stroke:none;fill-rule:nonzero;fill:rgb(24.705882%,23.921569%,33.72549%);fill-opacity:1;" d="M 72.019531 54.417969 L 71.558594 54.417969 C 71.519531 54.417969 71.488281 54.390625 71.488281 54.359375 L 71.488281 54.167969 C 71.488281 54.132812 71.519531 54.105469 71.558594 54.105469 L 72.019531 54.105469 C 72.058594 54.105469 72.089844 54.132812 72.089844 54.167969 L 72.089844 54.359375 C 72.089844 54.390625 72.058594 54.417969 72.019531 54.417969 Z M 72.019531 54.417969 "/>
<path style=" stroke:none;fill-rule:nonzero;fill:rgb(24.705882%,23.921569%,33.72549%);fill-opacity:1;" d="M 84.289062 55.042969 L 79.617188 55.042969 C 79.578125 55.042969 79.546875 55.015625 79.546875 54.980469 L 79.546875 54.792969 C 79.546875 54.757812 79.578125 54.730469 79.617188 54.730469 L 84.289062 54.730469 C 84.328125 54.730469 84.359375 54.757812 84.359375 54.792969 L 84.359375 54.980469 C 84.359375 55.015625 84.328125 55.042969 84.289062 55.042969 Z M 84.289062 55.042969 "/>
<path style=" stroke:none;fill-rule:nonzero;fill:rgb(100%,100%,100%);fill-opacity:1;" d="M 74.261719 44.527344 L 74.667969 44.527344 C 74.792969 44.527344 74.890625 44.617188 74.890625 44.722656 C 74.890625 44.828125 74.792969 44.917969 74.667969 44.917969 L 74.261719 44.917969 C 74.136719 44.917969 74.035156 44.828125 74.035156 44.722656 C 74.035156 44.617188 74.136719 44.527344 74.261719 44.527344 Z M 74.261719 44.527344 "/>
<path style=" stroke:none;fill-rule:nonzero;fill:rgb(100%,100%,100%);fill-opacity:1;" d="M 78.929688 44.527344 L 79.339844 44.527344 C 79.460938 44.527344 79.5625 44.617188 79.5625 44.722656 C 79.5625 44.828125 79.460938 44.917969 79.339844 44.917969 L 78.929688 44.917969 C 78.804688 44.917969 78.707031 44.828125 78.707031 44.722656 C 78.707031 44.617188 78.804688 44.527344 78.929688 44.527344 Z M 78.929688 44.527344 "/>
<path style=" stroke:none;fill-rule:nonzero;fill:rgb(100%,100%,100%);fill-opacity:1;" d="M 80.253906 44.527344 L 80.660156 44.527344 C 80.785156 44.527344 80.886719 44.617188 80.886719 44.722656 C 80.886719 44.828125 80.785156 44.917969 80.660156 44.917969 L 80.253906 44.917969 C 80.128906 44.917969 80.027344 44.828125 80.027344 44.722656 C 80.027344 44.617188 80.128906 44.527344 80.253906 44.527344 Z M 80.253906 44.527344 "/>
<path style=" stroke:none;fill-rule:nonzero;fill:rgb(100%,100%,100%);fill-opacity:1;" d="M 75.53125 44.496094 L 78.066406 44.496094 C 78.191406 44.496094 78.292969 44.582031 78.292969 44.691406 C 78.292969 44.796875 78.191406 44.882812 78.066406 44.882812 L 75.53125 44.882812 C 75.40625 44.882812 75.304688 44.796875 75.304688 44.691406 C 75.304688 44.582031 75.40625 44.496094 75.53125 44.496094 Z M 75.53125 44.496094 "/>
<path style=" stroke:none;fill-rule:nonzero;fill:rgb(100%,100%,100%);fill-opacity:1;" d="M 81.757812 44.496094 L 84.292969 44.496094 C 84.417969 44.496094 84.519531 44.582031 84.519531 44.691406 C 84.519531 44.796875 84.417969 44.882812 84.292969 44.882812 L 81.757812 44.882812 C 81.632812 44.882812 81.53125 44.796875 81.53125 44.691406 C 81.53125 44.582031 81.632812 44.496094 81.757812 44.496094 Z M 81.757812 44.496094 "/>
<path style=" stroke:none;fill-rule:nonzero;fill:rgb(100%,100%,100%);fill-opacity:1;" d="M 75.503906 45.402344 L 75.914062 45.402344 C 76.039062 45.402344 76.136719 45.488281 76.136719 45.597656 C 76.136719 45.703125 76.039062 45.789062 75.914062 45.789062 L 75.503906 45.789062 C 75.382812 45.789062 75.28125 45.703125 75.28125 45.597656 C 75.28125 45.488281 75.382812 45.402344 75.503906 45.402344 Z M 75.503906 45.402344 "/>
<path style=" stroke:none;fill-rule:nonzero;fill:rgb(100%,100%,100%);fill-opacity:1;" d="M 80.175781 45.402344 L 80.582031 45.402344 C 80.707031 45.402344 80.808594 45.488281 80.808594 45.597656 C 80.808594 45.703125 80.707031 45.789062 80.582031 45.789062 L 80.175781 45.789062 C 80.050781 45.789062 79.949219 45.703125 79.949219 45.597656 C 79.949219 45.488281 80.050781 45.402344 80.175781 45.402344 Z M 80.175781 45.402344 "/>
<path style=" stroke:none;fill-rule:nonzero;fill:rgb(100%,100%,100%);fill-opacity:1;" d="M 81.5 45.402344 L 81.90625 45.402344 C 82.03125 45.402344 82.128906 45.488281 82.128906 45.597656 C 82.128906 45.703125 82.03125 45.789062 81.90625 45.789062 L 81.5 45.789062 C 81.375 45.789062 81.273438 45.703125 81.273438 45.597656 C 81.273438 45.488281 81.375 45.402344 81.5 45.402344 Z M 81.5 45.402344 "/>
<path style=" stroke:none;fill-rule:nonzero;fill:rgb(100%,100%,100%);fill-opacity:1;" d="M 76.777344 45.371094 L 79.3125 45.371094 C 79.4375 45.371094 79.539062 45.457031 79.539062 45.566406 C 79.539062 45.671875 79.4375 45.757812 79.3125 45.757812 L 76.777344 45.757812 C 76.652344 45.757812 76.550781 45.671875 76.550781 45.566406 C 76.550781 45.457031 76.652344 45.371094 76.777344 45.371094 Z M 76.777344 45.371094 "/>
<path style=" stroke:none;fill-rule:nonzero;fill:rgb(100%,100%,100%);fill-opacity:1;" d="M 83 45.371094 L 85.539062 45.371094 C 85.664062 45.371094 85.765625 45.457031 85.765625 45.566406 C 85.765625 45.671875 85.664062 45.757812 85.539062 45.757812 L 83 45.757812 C 82.878906 45.757812 82.777344 45.671875 82.777344 45.566406 C 82.777344 45.457031 82.878906 45.371094 83 45.371094 Z M 83 45.371094 "/>
<path style=" stroke:none;fill-rule:nonzero;fill:rgb(100%,100%,100%);fill-opacity:1;" d="M 76.75 46.277344 L 77.160156 46.277344 C 77.28125 46.277344 77.382812 46.363281 77.382812 46.472656 C 77.382812 46.578125 77.28125 46.664062 77.160156 46.664062 L 76.75 46.664062 C 76.625 46.664062 76.527344 46.578125 76.527344 46.472656 C 76.527344 46.363281 76.625 46.277344 76.75 46.277344 Z M 76.75 46.277344 "/>
<path style=" stroke:none;fill-rule:nonzero;fill:rgb(100%,100%,100%);fill-opacity:1;" d="M 81.421875 46.277344 L 81.828125 46.277344 C 81.953125 46.277344 82.054688 46.363281 82.054688 46.472656 C 82.054688 46.578125 81.953125 46.664062 81.828125 46.664062 L 81.421875 46.664062 C 81.296875 46.664062 81.195312 46.578125 81.195312 46.472656 C 81.195312 46.363281 81.296875 46.277344 81.421875 46.277344 Z M 81.421875 46.277344 "/>
<path style=" stroke:none;fill-rule:nonzero;fill:rgb(100%,100%,100%);fill-opacity:1;" d="M 82.742188 46.277344 L 83.152344 46.277344 C 83.277344 46.277344 83.375 46.363281 83.375 46.472656 C 83.375 46.578125 83.277344 46.664062 83.152344 46.664062 L 82.742188 46.664062 C 82.621094 46.664062 82.519531 46.578125 82.519531 46.472656 C 82.519531 46.363281 82.621094 46.277344 82.742188 46.277344 Z M 82.742188 46.277344 "/>
<path style=" stroke:none;fill-rule:nonzero;fill:rgb(100%,100%,100%);fill-opacity:1;" d="M 78.019531 46.246094 L 80.558594 46.246094 C 80.683594 46.246094 80.78125 46.332031 80.78125 46.4375 C 80.78125 46.546875 80.683594 46.632812 80.558594 46.632812 L 78.019531 46.632812 C 77.898438 46.632812 77.796875 46.546875 77.796875 46.4375 C 77.796875 46.332031 77.898438 46.246094 78.019531 46.246094 Z M 78.019531 46.246094 "/>
<path style=" stroke:none;fill-rule:nonzero;fill:rgb(100%,100%,100%);fill-opacity:1;" d="M 84.246094 46.246094 L 86.785156 46.246094 C 86.910156 46.246094 87.007812 46.332031 87.007812 46.4375 C 87.007812 46.546875 86.910156 46.632812 86.785156 46.632812 L 84.246094 46.632812 C 84.125 46.632812 84.023438 46.546875 84.023438 46.4375 C 84.023438 46.332031 84.125 46.246094 84.246094 46.246094 Z M 84.246094 46.246094 "/>
<path style=" stroke:none;fill-rule:nonzero;fill:rgb(100%,100%,100%);fill-opacity:1;" d="M 77.996094 47.152344 L 78.402344 47.152344 C 78.527344 47.152344 78.628906 47.238281 78.628906 47.347656 C 78.628906 47.453125 78.527344 47.539062 78.402344 47.539062 L 77.996094 47.539062 C 77.871094 47.539062 77.773438 47.453125 77.773438 47.347656 C 77.773438 47.238281 77.871094 47.152344 77.996094 47.152344 Z M 77.996094 47.152344 "/>
<path style=" stroke:none;fill-rule:nonzero;fill:rgb(100%,100%,100%);fill-opacity:1;" d="M 82.664062 47.152344 L 83.074219 47.152344 C 83.199219 47.152344 83.296875 47.238281 83.296875 47.347656 C 83.296875 47.453125 83.199219 47.539062 83.074219 47.539062 L 82.664062 47.539062 C 82.542969 47.539062 82.441406 47.453125 82.441406 47.347656 C 82.441406 47.238281 82.542969 47.152344 82.664062 47.152344 Z M 82.664062 47.152344 "/>
<path style=" stroke:none;fill-rule:nonzero;fill:rgb(100%,100%,100%);fill-opacity:1;" d="M 83.988281 47.152344 L 84.398438 47.152344 C 84.519531 47.152344 84.621094 47.238281 84.621094 47.347656 C 84.621094 47.453125 84.519531 47.539062 84.398438 47.539062 L 83.988281 47.539062 C 83.863281 47.539062 83.765625 47.453125 83.765625 47.347656 C 83.765625 47.238281 83.863281 47.152344 83.988281 47.152344 Z M 83.988281 47.152344 "/>
<path style=" stroke:none;fill-rule:nonzero;fill:rgb(100%,100%,100%);fill-opacity:1;" d="M 79.265625 47.121094 L 81.804688 47.121094 C 81.925781 47.121094 82.027344 47.207031 82.027344 47.3125 C 82.027344 47.421875 81.925781 47.507812 81.804688 47.507812 L 79.265625 47.507812 C 79.140625 47.507812 79.042969 47.421875 79.042969 47.3125 C 79.042969 47.207031 79.140625 47.121094 79.265625 47.121094 Z M 79.265625 47.121094 "/>
<path style=" stroke:none;fill-rule:nonzero;fill:rgb(100%,100%,100%);fill-opacity:1;" d="M 78.929688 50.628906 L 79.339844 50.628906 C 79.460938 50.628906 79.5625 50.71875 79.5625 50.824219 C 79.5625 50.929688 79.460938 51.019531 79.339844 51.019531 L 78.929688 51.019531 C 78.804688 51.019531 78.707031 50.929688 78.707031 50.824219 C 78.707031 50.71875 78.804688 50.628906 78.929688 50.628906 Z M 78.929688 50.628906 "/>
<path style=" stroke:none;fill-rule:nonzero;fill:rgb(100%,100%,100%);fill-opacity:1;" d="M 80.253906 50.628906 L 80.660156 50.628906 C 80.785156 50.628906 80.886719 50.71875 80.886719 50.824219 C 80.886719 50.929688 80.785156 51.019531 80.660156 51.019531 L 80.253906 51.019531 C 80.128906 51.019531 80.027344 50.929688 80.027344 50.824219 C 80.027344 50.71875 80.128906 50.628906 80.253906 50.628906 Z M 80.253906 50.628906 "/>
<path style=" stroke:none;fill-rule:nonzero;fill:rgb(100%,100%,100%);fill-opacity:1;" d="M 81.757812 50.664062 L 84.292969 50.664062 C 84.417969 50.664062 84.519531 50.75 84.519531 50.855469 C 84.519531 50.964844 84.417969 51.050781 84.292969 51.050781 L 81.757812 51.050781 C 81.632812 51.050781 81.53125 50.964844 81.53125 50.855469 C 81.53125 50.75 81.632812 50.664062 81.757812 50.664062 Z M 81.757812 50.664062 "/>
<path style=" stroke:none;fill-rule:nonzero;fill:rgb(100%,100%,100%);fill-opacity:1;" d="M 74.261719 50.628906 L 74.667969 50.628906 C 74.792969 50.628906 74.890625 50.71875 74.890625 50.824219 C 74.890625 50.929688 74.792969 51.019531 74.667969 51.019531 L 74.261719 51.019531 C 74.136719 51.019531 74.035156 50.929688 74.035156 50.824219 C 74.035156 50.71875 74.136719 50.628906 74.261719 50.628906 Z M 74.261719 50.628906 "/>
<path style=" stroke:none;fill-rule:nonzero;fill:rgb(100%,100%,100%);fill-opacity:1;" d="M 75.53125 50.664062 L 78.066406 50.664062 C 78.191406 50.664062 78.292969 50.75 78.292969 50.855469 C 78.292969 50.964844 78.191406 51.050781 78.066406 51.050781 L 75.53125 51.050781 C 75.40625 51.050781 75.304688 50.964844 75.304688 50.855469 C 75.304688 50.75 75.40625 50.664062 75.53125 50.664062 Z M 75.53125 50.664062 "/>
<path style=" stroke:none;fill-rule:nonzero;fill:rgb(100%,100%,100%);fill-opacity:1;" d="M 75.503906 49.757812 L 75.914062 49.757812 C 76.039062 49.757812 76.136719 49.84375 76.136719 49.949219 C 76.136719 50.058594 76.039062 50.144531 75.914062 50.144531 L 75.503906 50.144531 C 75.382812 50.144531 75.28125 50.058594 75.28125 49.949219 C 75.28125 49.84375 75.382812 49.757812 75.503906 49.757812 Z M 75.503906 49.757812 "/>
<path style=" stroke:none;fill-rule:nonzero;fill:rgb(100%,100%,100%);fill-opacity:1;" d="M 80.175781 49.757812 L 80.582031 49.757812 C 80.707031 49.757812 80.808594 49.84375 80.808594 49.949219 C 80.808594 50.058594 80.707031 50.144531 80.582031 50.144531 L 80.175781 50.144531 C 80.050781 50.144531 79.949219 50.058594 79.949219 49.949219 C 79.949219 49.84375 80.050781 49.757812 80.175781 49.757812 Z M 80.175781 49.757812 "/>
<path style=" stroke:none;fill-rule:nonzero;fill:rgb(100%,100%,100%);fill-opacity:1;" d="M 81.5 49.757812 L 81.90625 49.757812 C 82.03125 49.757812 82.128906 49.84375 82.128906 49.949219 C 82.128906 50.058594 82.03125 50.144531 81.90625 50.144531 L 81.5 50.144531 C 81.375 50.144531 81.273438 50.058594 81.273438 49.949219 C 81.273438 49.84375 81.375 49.757812 81.5 49.757812 Z M 81.5 49.757812 "/>
<path style=" stroke:none;fill-rule:nonzero;fill:rgb(100%,100%,100%);fill-opacity:1;" d="M 76.777344 49.789062 L 79.3125 49.789062 C 79.4375 49.789062 79.539062 49.875 79.539062 49.980469 C 79.539062 50.089844 79.4375 50.175781 79.3125 50.175781 L 76.777344 50.175781 C 76.652344 50.175781 76.550781 50.089844 76.550781 49.980469 C 76.550781 49.875 76.652344 49.789062 76.777344 49.789062 Z M 76.777344 49.789062 "/>
<path style=" stroke:none;fill-rule:nonzero;fill:rgb(100%,100%,100%);fill-opacity:1;" d="M 76.75 48.882812 L 77.160156 48.882812 C 77.28125 48.882812 77.382812 48.96875 77.382812 49.074219 C 77.382812 49.183594 77.28125 49.269531 77.160156 49.269531 L 76.75 49.269531 C 76.625 49.269531 76.527344 49.183594 76.527344 49.074219 C 76.527344 48.96875 76.625 48.882812 76.75 48.882812 Z M 76.75 48.882812 "/>
<path style=" stroke:none;fill-rule:nonzero;fill:rgb(100%,100%,100%);fill-opacity:1;" d="M 81.421875 48.882812 L 81.828125 48.882812 C 81.953125 48.882812 82.054688 48.96875 82.054688 49.074219 C 82.054688 49.183594 81.953125 49.269531 81.828125 49.269531 L 81.421875 49.269531 C 81.296875 49.269531 81.195312 49.183594 81.195312 49.074219 C 81.195312 48.96875 81.296875 48.882812 81.421875 48.882812 Z M 81.421875 48.882812 "/>
<path style=" stroke:none;fill-rule:nonzero;fill:rgb(100%,100%,100%);fill-opacity:1;" d="M 82.742188 48.882812 L 83.152344 48.882812 C 83.277344 48.882812 83.375 48.96875 83.375 49.074219 C 83.375 49.183594 83.277344 49.269531 83.152344 49.269531 L 82.742188 49.269531 C 82.621094 49.269531 82.519531 49.183594 82.519531 49.074219 C 82.519531 48.96875 82.621094 48.882812 82.742188 48.882812 Z M 82.742188 48.882812 "/>
<path style=" stroke:none;fill-rule:nonzero;fill:rgb(100%,100%,100%);fill-opacity:1;" d="M 78.019531 48.914062 L 80.558594 48.914062 C 80.683594 48.914062 80.78125 49 80.78125 49.105469 C 80.78125 49.214844 80.683594 49.300781 80.558594 49.300781 L 78.019531 49.300781 C 77.898438 49.300781 77.796875 49.214844 77.796875 49.105469 C 77.796875 49 77.898438 48.914062 78.019531 48.914062 Z M 78.019531 48.914062 "/>
<path style=" stroke:none;fill-rule:nonzero;fill:rgb(100%,100%,100%);fill-opacity:1;" d="M 77.996094 48.007812 L 78.402344 48.007812 C 78.527344 48.007812 78.628906 48.09375 78.628906 48.199219 C 78.628906 48.308594 78.527344 48.394531 78.402344 48.394531 L 77.996094 48.394531 C 77.871094 48.394531 77.773438 48.308594 77.773438 48.199219 C 77.773438 48.09375 77.871094 48.007812 77.996094 48.007812 Z M 77.996094 48.007812 "/>
<path style=" stroke:none;fill-rule:nonzero;fill:rgb(100%,100%,100%);fill-opacity:1;" d="M 82.664062 48.007812 L 83.074219 48.007812 C 83.199219 48.007812 83.296875 48.09375 83.296875 48.199219 C 83.296875 48.308594 83.199219 48.394531 83.074219 48.394531 L 82.664062 48.394531 C 82.542969 48.394531 82.441406 48.308594 82.441406 48.199219 C 82.441406 48.09375 82.542969 48.007812 82.664062 48.007812 Z M 82.664062 48.007812 "/>
<path style=" stroke:none;fill-rule:nonzero;fill:rgb(100%,100%,100%);fill-opacity:1;" d="M 83.988281 48.007812 L 84.398438 48.007812 C 84.519531 48.007812 84.621094 48.09375 84.621094 48.199219 C 84.621094 48.308594 84.519531 48.394531 84.398438 48.394531 L 83.988281 48.394531 C 83.863281 48.394531 83.765625 48.308594 83.765625 48.199219 C 83.765625 48.09375 83.863281 48.007812 83.988281 48.007812 Z M 83.988281 48.007812 "/>
<path style=" stroke:none;fill-rule:nonzero;fill:rgb(100%,100%,100%);fill-opacity:1;" d="M 79.265625 48.039062 L 81.804688 48.039062 C 81.925781 48.039062 82.027344 48.125 82.027344 48.234375 C 82.027344 48.339844 81.925781 48.425781 81.804688 48.425781 L 79.265625 48.425781 C 79.140625 48.425781 79.042969 48.339844 79.042969 48.234375 C 79.042969 48.125 79.140625 48.039062 79.265625 48.039062 Z M 79.265625 48.039062 "/>
<path style=" stroke:none;fill-rule:nonzero;fill:rgb(100%,71.372549%,71.372549%);fill-opacity:1;" d="M 72.496094 60.882812 L 70.582031 58.261719 L 76.597656 54.117188 L 79.082031 51.738281 C 79.738281 51.109375 80.730469 50.828125 81.691406 51.003906 C 82.648438 51.179688 83.429688 51.78125 83.734375 52.585938 C 84.199219 53.800781 83.464844 55.121094 82.074219 55.5625 L 78.148438 56.8125 Z M 72.496094 60.882812 "/>
<path style=" stroke:none;fill-rule:nonzero;fill:rgb(18.431373%,18.039216%,25.490196%);fill-opacity:1;" d="M 27.523438 41.890625 L 27.523438 54.621094 L 37.839844 54.621094 L 37.839844 41.890625 C 37.839844 41.703125 37.699219 41.535156 37.492188 41.480469 C 37.441406 41.46875 37.394531 41.460938 37.34375 41.460938 L 28.023438 41.460938 C 27.746094 41.460938 27.523438 41.652344 27.523438 41.890625 Z M 31.550781 46.265625 C 31.554688 45.742188 32.046875 45.320312 32.652344 45.320312 C 33.253906 45.320312 33.746094 45.742188 33.753906 46.265625 L 33.753906 47.742188 C 33.75 48.265625 33.257812 48.6875 32.652344 48.6875 C 32.042969 48.6875 31.550781 48.265625 31.550781 47.742188 Z M 31.550781 46.265625 "/>
<path style=" stroke:none;fill-rule:nonzero;fill:rgb(24.705882%,23.921569%,33.72549%);fill-opacity:1;" d="M 27.492188 54.214844 L 27.492188 55.441406 C 27.492188 55.574219 27.617188 55.679688 27.769531 55.683594 L 37.59375 55.683594 C 37.746094 55.679688 37.871094 55.574219 37.871094 55.441406 L 37.871094 54.214844 Z M 27.492188 54.214844 "/>
<path style=" stroke:none;fill-rule:nonzero;fill:rgb(24.705882%,23.921569%,33.72549%);fill-opacity:1;" d="M 11.292969 22.710938 L 11.292969 45.953125 C 11.292969 46.570312 11.871094 47.070312 12.585938 47.070312 L 52.429688 47.070312 C 53.144531 47.070312 53.722656 46.570312 53.722656 45.953125 L 53.722656 22.710938 C 53.722656 22.09375 53.144531 21.59375 52.429688 21.59375 L 12.585938 21.59375 C 11.875 21.59375 11.296875 22.09375 11.292969 22.710938 Z M 11.292969 22.710938 "/>
<path style=" stroke:none;fill-rule:nonzero;fill:rgb(100%,100%,100%);fill-opacity:1;" d="M 12.230469 23 L 12.230469 45.667969 C 12.230469 45.996094 12.539062 46.265625 12.917969 46.265625 L 52.097656 46.265625 C 52.480469 46.265625 52.789062 45.996094 52.789062 45.667969 L 52.789062 23 C 52.789062 22.667969 52.480469 22.402344 52.097656 22.402344 L 12.917969 22.402344 C 12.539062 22.402344 12.230469 22.667969 12.230469 23 Z M 12.230469 23 "/>
<path style=" stroke:none;fill-rule:nonzero;fill:rgb(18.431373%,18.039216%,25.490196%);fill-opacity:1;" d="M 19.5 55.597656 C 19.582031 55.6875 19.703125 55.738281 19.832031 55.738281 L 43.140625 55.738281 C 43.273438 55.734375 43.394531 55.6875 43.476562 55.597656 C 43.554688 55.511719 43.589844 55.398438 43.5625 55.289062 L 43.199219 53.804688 C 43.167969 53.679688 43.070312 53.578125 42.933594 53.535156 C 42.882812 53.519531 42.832031 53.507812 42.78125 53.507812 L 20.195312 53.507812 C 20.140625 53.507812 20.089844 53.519531 20.042969 53.535156 C 19.90625 53.578125 19.804688 53.679688 19.773438 53.804688 L 19.414062 55.289062 C 19.386719 55.398438 19.417969 55.511719 19.5 55.597656 Z M 19.5 55.597656 "/>
<path style=" stroke:none;fill-rule:nonzero;fill:rgb(24.705882%,23.921569%,33.72549%);fill-opacity:1;" d="M 50.828125 25.523438 L 14.167969 25.523438 C 14.089844 25.523438 14.023438 25.464844 14.023438 25.398438 C 14.023438 25.328125 14.089844 25.273438 14.167969 25.273438 L 50.828125 25.273438 C 50.90625 25.273438 50.96875 25.328125 50.96875 25.398438 C 50.96875 25.464844 50.90625 25.523438 50.828125 25.523438 Z M 50.828125 25.523438 "/>
<path style=" stroke:none;fill-rule:nonzero;fill:rgb(24.705882%,23.921569%,33.72549%);fill-opacity:1;" d="M 17.515625 23.875 C 17.515625 23.457031 17.136719 23.117188 16.664062 23.117188 C 16.191406 23.117188 15.808594 23.457031 15.808594 23.875 C 15.808594 24.289062 16.191406 24.628906 16.664062 24.628906 C 17.136719 24.628906 17.515625 24.289062 17.515625 23.875 Z M 17.515625 23.875 "/>
<path style=" stroke:none;fill-rule:nonzero;fill:rgb(24.705882%,23.921569%,33.72549%);fill-opacity:1;" d="M 20.46875 23.875 C 20.46875 23.457031 20.085938 23.117188 19.613281 23.117188 C 19.144531 23.117188 18.761719 23.457031 18.761719 23.875 C 18.761719 24.289062 19.144531 24.628906 19.613281 24.628906 C 20.085938 24.628906 20.46875 24.289062 20.46875 23.875 Z M 20.46875 23.875 "/>
<path style=" stroke:none;fill-rule:nonzero;fill:rgb(24.705882%,23.921569%,33.72549%);fill-opacity:1;" d="M 23.421875 23.875 C 23.421875 23.457031 23.039062 23.117188 22.566406 23.117188 C 22.09375 23.117188 21.710938 23.457031 21.710938 23.875 C 21.710938 24.289062 22.09375 24.628906 22.566406 24.628906 C 23.039062 24.628906 23.421875 24.289062 23.421875 23.875 Z M 23.421875 23.875 "/>
<path style=" stroke:none;fill-rule:nonzero;fill:rgb(24.705882%,23.921569%,33.72549%);fill-opacity:1;" d="M 49.050781 23.304688 L 46.953125 23.304688 C 46.867188 23.304688 46.800781 23.367188 46.800781 23.441406 C 46.800781 23.515625 46.867188 23.578125 46.953125 23.578125 L 49.050781 23.578125 C 49.136719 23.578125 49.207031 23.515625 49.207031 23.441406 C 49.207031 23.367188 49.136719 23.304688 49.050781 23.304688 Z M 49.050781 23.304688 "/>
<path style=" stroke:none;fill-rule:nonzero;fill:rgb(24.705882%,23.921569%,33.72549%);fill-opacity:1;" d="M 49.050781 23.820312 L 46.953125 23.820312 C 46.867188 23.820312 46.800781 23.882812 46.800781 23.957031 C 46.800781 24.03125 46.867188 24.09375 46.953125 24.09375 L 49.050781 24.09375 C 49.136719 24.09375 49.207031 24.03125 49.207031 23.957031 C 49.207031 23.882812 49.136719 23.820312 49.050781 23.820312 Z M 49.050781 23.820312 "/>
<path style=" stroke:none;fill-rule:nonzero;fill:rgb(24.705882%,23.921569%,33.72549%);fill-opacity:1;" d="M 49.050781 24.335938 L 46.953125 24.335938 C 46.867188 24.335938 46.800781 24.398438 46.800781 24.472656 C 46.800781 24.546875 46.867188 24.609375 46.953125 24.609375 L 49.050781 24.609375 C 49.136719 24.609375 49.207031 24.546875 49.207031 24.472656 C 49.207031 24.398438 49.136719 24.335938 49.050781 24.335938 Z M 49.050781 24.335938 "/>
<path style=" stroke:none;fill-rule:nonzero;fill:rgb(18.431373%,18.039216%,25.490196%);fill-opacity:1;" d="M 99.589844 54.753906 C 99.71875 55.078125 100.078125 55.296875 100.476562 55.289062 L 104.28125 55.203125 C 104.683594 55.199219 105.03125 54.964844 105.140625 54.628906 L 105.675781 49.652344 C 105.867188 49.726562 106.078125 49.761719 106.285156 49.757812 C 107.050781 49.742188 107.65625 49.191406 107.636719 48.53125 C 107.617188 47.867188 106.980469 47.34375 106.214844 47.363281 C 106.132812 47.359375 106.050781 47.367188 105.96875 47.382812 C 105.785156 47.214844 105.53125 47.121094 105.265625 47.121094 L 99.414062 47.253906 C 99.367188 47.253906 99.320312 47.261719 99.273438 47.269531 C 99.011719 47.3125 98.785156 47.449219 98.652344 47.644531 C 98.519531 47.839844 98.488281 48.078125 98.570312 48.292969 Z M 105.789062 49.3125 L 106.171875 48.128906 C 106.214844 47.992188 106.214844 47.847656 106.171875 47.707031 C 106.191406 47.707031 106.207031 47.699219 106.226562 47.699219 C 106.773438 47.691406 107.226562 48.066406 107.238281 48.539062 C 107.253906 49.011719 106.820312 49.402344 106.273438 49.417969 C 106.105469 49.421875 105.9375 49.386719 105.789062 49.3125 Z M 105.789062 49.3125 "/>
<path style=" stroke:none;fill-rule:nonzero;fill:rgb(24.705882%,23.921569%,33.72549%);fill-opacity:1;" d="M 99.273438 47.269531 C 99.394531 47.886719 100.796875 48.316406 102.484375 48.242188 C 104.03125 48.179688 105.300781 47.710938 105.53125 47.152344 C 105.445312 47.132812 105.355469 47.121094 105.265625 47.121094 L 99.414062 47.253906 C 99.367188 47.253906 99.320312 47.261719 99.273438 47.269531 Z M 99.273438 47.269531 "/>
<path style=" stroke:none;fill-rule:nonzero;fill:rgb(0%,48.235294%,100%);fill-opacity:1;" d="M 102.792969 52.019531 C 102.800781 52.015625 102.808594 52.011719 102.8125 52.007812 L 103.640625 51.542969 C 103.660156 51.53125 103.671875 51.511719 103.671875 51.492188 C 103.671875 51.46875 103.660156 51.449219 103.640625 51.4375 L 102.78125 50.953125 C 102.757812 50.941406 102.730469 50.9375 102.710938 50.949219 C 102.6875 50.957031 102.671875 50.976562 102.667969 51 C 102.667969 51.023438 102.679688 51.042969 102.703125 51.054688 L 103.46875 51.488281 L 102.734375 51.90625 C 102.707031 51.921875 102.695312 51.953125 102.707031 51.984375 C 102.722656 52.011719 102.757812 52.023438 102.792969 52.019531 Z M 102.792969 52.019531 "/>
<path style=" stroke:none;fill-rule:nonzero;fill:rgb(0%,48.235294%,100%);fill-opacity:1;" d="M 101.488281 52.070312 C 101.515625 52.0625 101.535156 52.042969 101.539062 52.019531 C 101.542969 51.992188 101.53125 51.96875 101.503906 51.957031 L 100.742188 51.578125 L 101.480469 51.105469 C 101.511719 51.085938 101.519531 51.046875 101.496094 51.019531 C 101.472656 50.992188 101.425781 50.984375 101.394531 51.007812 L 100.570312 51.535156 C 100.550781 51.546875 100.539062 51.566406 100.542969 51.589844 C 100.542969 51.609375 100.554688 51.628906 100.578125 51.640625 L 101.433594 52.0625 C 101.449219 52.070312 101.46875 52.074219 101.488281 52.070312 Z M 101.488281 52.070312 "/>
<path style=" stroke:none;fill-rule:nonzero;fill:rgb(0%,48.235294%,100%);fill-opacity:1;" d="M 102.710938 52.425781 C 102.714844 52.425781 102.722656 52.421875 102.730469 52.421875 C 102.746094 52.410156 102.757812 52.398438 102.761719 52.382812 C 102.765625 52.367188 102.761719 52.347656 102.753906 52.335938 L 101.582031 50.671875 C 101.5625 50.640625 101.519531 50.632812 101.484375 50.648438 C 101.449219 50.667969 101.4375 50.707031 101.460938 50.734375 L 102.628906 52.398438 C 102.648438 52.421875 102.679688 52.433594 102.710938 52.425781 Z M 102.710938 52.425781 "/>
<path style=" stroke:none;fill-rule:nonzero;fill:rgb(0%,48.235294%,100%);fill-opacity:1;" d="M 30.53125 32.375 L 36.878906 32.375 C 37.136719 32.375 37.347656 32.558594 37.347656 32.78125 L 37.347656 33.316406 C 37.347656 33.539062 37.136719 33.722656 36.878906 33.722656 L 30.53125 33.722656 C 30.273438 33.722656 30.0625 33.539062 30.0625 33.316406 L 30.0625 32.78125 C 30.0625 32.558594 30.273438 32.375 30.53125 32.375 Z M 30.53125 32.375 "/>
<path style=" stroke:none;fill-rule:nonzero;fill:rgb(90.196078%,90.196078%,90.196078%);fill-opacity:1;" d="M 26.835938 35.066406 L 40.578125 35.066406 C 40.835938 35.066406 41.046875 35.25 41.046875 35.472656 L 41.046875 36.007812 C 41.046875 36.234375 40.835938 36.414062 40.578125 36.414062 L 26.835938 36.414062 C 26.574219 36.414062 26.367188 36.234375 26.367188 36.007812 L 26.367188 35.472656 C 26.367188 35.25 26.574219 35.066406 26.835938 35.066406 Z M 26.835938 35.066406 "/>
<path style=" stroke:none;fill-rule:nonzero;fill:rgb(90.196078%,90.196078%,90.196078%);fill-opacity:1;" d="M 26.835938 37.761719 L 40.578125 37.761719 C 40.835938 37.761719 41.046875 37.941406 41.046875 38.164062 L 41.046875 38.703125 C 41.046875 38.925781 40.835938 39.105469 40.578125 39.105469 L 26.835938 39.105469 C 26.574219 39.105469 26.367188 38.925781 26.367188 38.703125 L 26.367188 38.164062 C 26.367188 37.941406 26.574219 37.761719 26.835938 37.761719 Z M 26.835938 37.761719 "/>
<path style=" stroke:none;fill-rule:nonzero;fill:rgb(24.705882%,23.921569%,33.72549%);fill-opacity:1;" d="M 41.742188 46.777344 L 41.773438 46.859375 L 41.773438 46.863281 L 42.710938 49.328125 L 43.789062 52.164062 L 45.816406 57.496094 L 45.835938 58.324219 L 45.835938 58.328125 L 45.988281 64.992188 L 45.570312 65.894531 L 46.039062 67.375 C 46.039062 67.375 45.824219 65.136719 44.664062 66.421875 C 44.007812 67.152344 43.238281 67.902344 42.609375 68.601562 C 43.527344 68.921875 44.460938 69.214844 45.410156 69.472656 C 45.613281 69.53125 45.820312 69.585938 46.027344 69.636719 C 46.070312 69.648438 46.113281 69.660156 46.160156 69.671875 C 49.300781 70.476562 52.550781 70.929688 55.828125 71.015625 C 56 71.019531 56.167969 71.023438 56.328125 71.027344 C 56.386719 71.027344 56.441406 71.027344 56.496094 71.027344 C 56.679688 71.03125 56.863281 71.03125 57.046875 71.03125 C 57.417969 71.03125 57.785156 71.027344 58.152344 71.019531 C 60.867188 70.953125 63.566406 70.636719 66.207031 70.078125 C 66.1875 69.132812 66.136719 68.035156 66.066406 66.859375 C 66.035156 66.28125 65.300781 65.660156 65.253906 65.054688 C 65.222656 64.601562 65.882812 64.175781 65.851562 63.714844 C 65.628906 60.882812 65.347656 61.96875 65.144531 59.964844 C 65.121094 59.765625 65.101562 59.578125 65.082031 59.398438 C 64.949219 58.109375 64.859375 57.304688 64.859375 57.304688 L 65.742188 52.503906 L 67.125 44.964844 L 67.019531 44.8125 L 66.898438 44.761719 L 59.597656 41.636719 L 59.203125 40.761719 C 58.964844 40.242188 58.390625 39.902344 57.746094 39.898438 L 52.9375 39.878906 C 52.429688 39.878906 51.953125 40.085938 51.65625 40.441406 L 50.355469 42 Z M 41.742188 46.777344 "/>
<path style=" stroke:none;fill-rule:nonzero;fill:rgb(24.705882%,23.921569%,33.72549%);fill-opacity:1;" d="M 46.925781 56.308594 L 45.835938 58.324219 L 45.09375 59.703125 L 43.8125 65.492188 L 43.171875 66.078125 L 42.625 64 L 36.882812 65.101562 C 36.691406 64.195312 36.832031 65.132812 36.714844 64.140625 C 36.746094 64.109375 36.78125 64.082031 36.816406 64.054688 C 36.90625 63.980469 36.984375 63.910156 36.984375 63.84375 C 36.917969 60.421875 37.113281 54.59375 38.753906 51.0625 C 39.011719 50.488281 39.351562 49.941406 39.765625 49.4375 C 39.796875 49.398438 39.828125 49.359375 39.859375 49.324219 C 40.617188 48.40625 41.09375 47.503906 41.773438 46.863281 L 41.773438 46.859375 C 41.777344 46.859375 41.78125 46.855469 41.785156 46.851562 C 41.785156 46.851562 41.789062 46.847656 41.789062 46.847656 L 46.449219 44.710938 L 46.648438 49.566406 L 46.792969 53.054688 Z M 46.925781 56.308594 "/>
<path style=" stroke:none;fill-rule:nonzero;fill:rgb(24.705882%,23.921569%,33.72549%);fill-opacity:1;" d="M 63.722656 56.882812 L 65.082031 59.398438 L 65.558594 60.277344 L 66.835938 66.066406 L 67.476562 66.652344 L 68.023438 64.570312 L 68.285156 64.527344 L 72.945312 63.691406 L 74.300781 67.421875 C 74.933594 66.511719 74.738281 65.34375 73.835938 64.628906 C 73.742188 64.554688 73.664062 64.484375 73.667969 64.417969 C 73.742188 60.390625 73.457031 53.035156 70.886719 50.011719 C 70.066406 49.050781 69.578125 48.09375 68.863281 47.425781 C 68.863281 47.421875 68.863281 47.421875 68.859375 47.421875 L 67.125 44.964844 L 67.019531 44.8125 L 66.898438 44.761719 Z M 63.722656 56.882812 "/>
<path style=" stroke:none;fill-rule:nonzero;fill:rgb(100%,71.372549%,71.372549%);fill-opacity:1;" d="M 61.878906 33.167969 C 61.878906 36.222656 59.011719 38.699219 55.480469 38.699219 C 51.945312 38.699219 49.082031 36.222656 49.082031 33.167969 C 49.082031 30.113281 51.945312 27.636719 55.480469 27.636719 C 59.011719 27.636719 61.878906 30.113281 61.878906 33.167969 Z M 61.878906 33.167969 "/>
<path style=" stroke:none;fill-rule:nonzero;fill:rgb(18.431373%,18.039216%,25.490196%);fill-opacity:1;" d="M 64.128906 29.304688 C 64.027344 29.210938 63.886719 29.15625 63.742188 29.15625 L 63.835938 28.925781 C 63.902344 28.777344 63.867188 28.609375 63.75 28.488281 C 63.632812 28.367188 63.449219 28.3125 63.269531 28.339844 L 62.917969 28.398438 L 62.953125 28.199219 C 62.976562 28.042969 62.90625 27.890625 62.769531 27.792969 C 62.628906 27.695312 62.441406 27.667969 62.273438 27.722656 C 62.121094 27.773438 61.949219 27.765625 61.808594 27.695312 C 61.664062 27.625 61.5625 27.507812 61.53125 27.371094 L 61.410156 26.863281 L 61.398438 26.835938 C 60.800781 25.976562 59.660156 25.355469 58.261719 25.125 C 57.015625 24.921875 55.738281 25.027344 54.507812 25.125 C 54.019531 25.164062 53.46875 25.207031 53.011719 25.453125 C 52.621094 25.660156 52.289062 26.078125 52.355469 26.496094 C 51.144531 26.175781 49.84375 26.816406 49.199219 27.628906 C 48.433594 28.589844 48.308594 29.796875 48.289062 30.742188 C 48.234375 32.972656 48.765625 34.796875 49.867188 36.167969 C 49.949219 36.269531 49.96875 36.476562 50.128906 36.542969 L 50.09375 36.5 C 50.273438 36.574219 50.453125 36.699219 50.386719 36.832031 C 50.191406 37.214844 51.480469 38.058594 52.386719 38.339844 C 54.042969 38.851562 56.246094 38.804688 57.792969 38.621094 L 57.847656 38.304688 C 58.40625 38.242188 58.800781 38.113281 58.910156 37.917969 C 59.105469 37.773438 59.269531 37.644531 59.417969 37.527344 L 59.417969 37.523438 C 59.421875 37.523438 59.425781 37.519531 59.429688 37.515625 C 60.128906 36.9375 60.289062 36.605469 60.363281 36.105469 C 60.433594 35.609375 60.308594 35.109375 60.183594 34.660156 C 62.871094 35.019531 59.121094 32.183594 61.628906 31.632812 C 61.65625 31.625 61.6875 31.621094 61.714844 31.617188 C 61.789062 31.601562 61.863281 31.585938 61.933594 31.570312 C 62.273438 31.488281 62.597656 31.367188 62.898438 31.210938 C 63.597656 30.84375 63.832031 30.355469 64.191406 29.804688 C 64.300781 29.640625 64.273438 29.441406 64.128906 29.304688 Z M 64.128906 29.304688 "/>
<path style=" stroke:none;fill-rule:nonzero;fill:rgb(18.431373%,18.039216%,25.490196%);fill-opacity:1;" d="M 78.109375 57.277344 C 78.105469 57.492188 78.105469 57.796875 78.09375 58.171875 C 78.089844 58.226562 78.089844 58.277344 78.089844 58.332031 C 78.070312 59.023438 78.050781 59.605469 78.019531 60.25 C 78.019531 60.292969 78.019531 60.335938 78.015625 60.382812 C 77.976562 61.28125 77.910156 62.328125 77.800781 63.984375 C 77.601562 67.046875 77.246094 64.40625 76.890625 65.476562 C 76.875 65.53125 76.855469 65.59375 76.839844 65.667969 C 76.785156 65.941406 76.695312 66.203125 76.570312 66.457031 C 76.378906 66.550781 76.1875 66.644531 75.996094 66.738281 C 75.453125 67 74.898438 67.253906 74.34375 67.492188 C 74.027344 67.625 73.714844 67.757812 73.398438 67.882812 C 73.347656 67.902344 73.300781 67.921875 73.25 67.941406 C 71.632812 68.589844 69.964844 69.140625 68.261719 69.589844 C 67.929688 69.675781 67.597656 69.757812 67.261719 69.835938 C 66.910156 69.921875 66.558594 70 66.207031 70.074219 C 63.566406 70.636719 60.867188 70.953125 58.152344 71.019531 C 57.785156 71.027344 57.417969 71.03125 57.046875 71.03125 C 56.863281 71.03125 56.679688 71.03125 56.496094 71.03125 C 56.441406 71.03125 56.386719 71.027344 56.328125 71.027344 C 56.167969 71.023438 56 71.019531 55.828125 71.015625 C 52.554688 70.929688 49.304688 70.476562 46.160156 69.671875 L 46.027344 69.640625 C 45.820312 69.585938 45.613281 69.53125 45.410156 69.472656 C 44.460938 69.214844 43.527344 68.925781 42.605469 68.601562 C 41.90625 68.359375 41.210938 68.097656 40.523438 67.816406 C 40.519531 67.8125 40.511719 67.8125 40.507812 67.808594 C 40.363281 67.75 40.21875 67.691406 40.074219 67.628906 C 40.058594 67.621094 40.035156 67.613281 40.015625 67.605469 C 39.480469 67.378906 38.953125 67.140625 38.425781 66.894531 C 37.988281 66.019531 37.367188 65.851562 36.980469 65.082031 C 36.871094 64.855469 36.789062 64.613281 36.742188 64.371094 C 36.742188 64.367188 36.738281 64.363281 36.738281 64.363281 C 36.777344 64.824219 36.566406 63.542969 36.738281 64.355469 C 36.734375 64.339844 36.734375 64.324219 36.734375 64.308594 C 36.730469 64.261719 36.722656 64.207031 36.714844 64.140625 C 36.222656 59.980469 36.253906 55.226562 36.039062 51.3125 C 36.023438 51.058594 36.011719 50.816406 35.996094 50.582031 C 35.992188 50.507812 35.984375 50.429688 35.980469 50.355469 C 35.988281 50.332031 36 50.308594 36.015625 50.289062 C 36.015625 50.28125 36.019531 50.273438 36.023438 50.269531 C 36.027344 50.261719 36.03125 50.253906 36.039062 50.246094 C 36.042969 50.242188 36.046875 50.238281 36.046875 50.234375 C 36.050781 50.230469 36.054688 50.226562 36.054688 50.222656 C 36.070312 50.203125 36.082031 50.1875 36.097656 50.167969 C 36.105469 50.160156 36.113281 50.15625 36.117188 50.148438 C 36.125 50.144531 36.128906 50.136719 36.136719 50.132812 C 36.140625 50.125 36.144531 50.121094 36.152344 50.117188 C 36.15625 50.109375 36.164062 50.105469 36.171875 50.097656 C 36.171875 50.09375 36.175781 50.089844 36.183594 50.089844 C 36.191406 50.078125 36.207031 50.066406 36.21875 50.058594 C 36.269531 50.015625 36.324219 49.980469 36.382812 49.945312 C 36.402344 49.933594 36.425781 49.921875 36.445312 49.910156 C 36.589844 49.835938 36.742188 49.773438 36.898438 49.722656 C 36.953125 49.703125 37.007812 49.6875 37.066406 49.671875 C 37.089844 49.667969 37.109375 49.660156 37.132812 49.652344 C 37.164062 49.644531 37.195312 49.636719 37.226562 49.628906 C 37.390625 49.589844 37.566406 49.550781 37.757812 49.519531 C 37.78125 49.515625 37.804688 49.511719 37.832031 49.507812 C 37.863281 49.5 37.902344 49.496094 37.9375 49.488281 C 37.984375 49.480469 38.035156 49.476562 38.085938 49.46875 C 38.511719 49.410156 38.996094 49.367188 39.53125 49.335938 C 39.582031 49.335938 39.628906 49.332031 39.679688 49.328125 C 39.738281 49.328125 39.796875 49.324219 39.859375 49.320312 C 39.910156 49.320312 39.960938 49.320312 40.011719 49.316406 C 40.0625 49.316406 40.113281 49.3125 40.167969 49.3125 C 40.3125 49.308594 40.460938 49.304688 40.613281 49.300781 C 41.046875 49.296875 41.503906 49.296875 41.984375 49.304688 C 42.207031 49.3125 42.433594 49.316406 42.667969 49.324219 C 42.683594 49.324219 42.695312 49.324219 42.710938 49.324219 C 42.914062 49.332031 43.117188 49.339844 43.328125 49.347656 C 43.472656 49.355469 43.621094 49.363281 43.769531 49.371094 C 43.90625 49.375 44.046875 49.382812 44.191406 49.394531 C 44.300781 49.398438 44.410156 49.40625 44.523438 49.410156 C 44.617188 49.417969 44.714844 49.425781 44.808594 49.429688 L 44.9375 49.4375 C 45.007812 49.441406 45.078125 49.445312 45.148438 49.453125 C 45.308594 49.460938 45.464844 49.472656 45.625 49.484375 C 45.785156 49.496094 45.949219 49.507812 46.109375 49.523438 C 46.273438 49.535156 46.4375 49.546875 46.601562 49.5625 C 46.617188 49.5625 46.632812 49.5625 46.648438 49.566406 C 46.796875 49.578125 46.949219 49.589844 47.097656 49.605469 C 47.132812 49.609375 47.167969 49.609375 47.203125 49.613281 C 47.347656 49.625 47.492188 49.640625 47.636719 49.65625 C 47.683594 49.660156 47.726562 49.664062 47.773438 49.667969 C 47.886719 49.675781 47.996094 49.6875 48.113281 49.699219 C 48.261719 49.714844 48.417969 49.726562 48.566406 49.746094 C 48.683594 49.753906 48.796875 49.765625 48.914062 49.777344 C 49.097656 49.796875 49.28125 49.816406 49.46875 49.839844 C 49.539062 49.847656 49.609375 49.855469 49.679688 49.863281 C 50.207031 49.917969 50.742188 49.984375 51.285156 50.046875 C 52.105469 50.148438 52.941406 50.257812 53.785156 50.375 C 54.625 50.492188 55.472656 50.617188 56.328125 50.75 C 56.542969 50.785156 56.757812 50.816406 56.972656 50.851562 C 57.070312 50.867188 57.167969 50.882812 57.265625 50.898438 C 57.433594 50.925781 57.601562 50.953125 57.765625 50.980469 C 57.933594 51.007812 58.101562 51.035156 58.265625 51.0625 C 58.464844 51.097656 58.664062 51.128906 58.863281 51.164062 C 60.167969 51.386719 61.464844 51.625 62.730469 51.875 C 62.941406 51.917969 63.148438 51.957031 63.355469 52 C 63.769531 52.082031 64.179688 52.167969 64.585938 52.253906 C 64.695312 52.273438 64.804688 52.296875 64.917969 52.324219 C 65.191406 52.382812 65.46875 52.441406 65.738281 52.503906 L 65.789062 52.511719 C 65.988281 52.554688 66.183594 52.597656 66.378906 52.644531 C 66.839844 52.75 67.292969 52.855469 67.738281 52.960938 C 68.03125 53.03125 68.324219 53.101562 68.613281 53.175781 C 69.046875 53.28125 69.46875 53.390625 69.882812 53.503906 C 69.984375 53.53125 70.085938 53.558594 70.1875 53.582031 C 70.488281 53.664062 70.785156 53.746094 71.074219 53.828125 C 71.304688 53.890625 71.527344 53.957031 71.75 54.023438 C 71.96875 54.089844 72.1875 54.15625 72.398438 54.222656 C 72.535156 54.265625 72.671875 54.308594 72.804688 54.351562 C 73 54.414062 73.191406 54.476562 73.378906 54.535156 C 73.433594 54.554688 73.492188 54.574219 73.546875 54.59375 C 73.582031 54.609375 73.617188 54.617188 73.652344 54.632812 C 73.71875 54.65625 73.789062 54.675781 73.855469 54.699219 C 73.921875 54.722656 73.988281 54.746094 74.054688 54.769531 C 74.117188 54.792969 74.183594 54.816406 74.246094 54.839844 C 74.3125 54.863281 74.375 54.886719 74.4375 54.910156 C 74.492188 54.929688 74.542969 54.949219 74.59375 54.96875 C 74.695312 55.007812 74.796875 55.046875 74.894531 55.085938 C 74.945312 55.105469 74.992188 55.125 75.042969 55.144531 L 75.15625 55.191406 C 75.171875 55.195312 75.1875 55.203125 75.203125 55.210938 C 75.238281 55.222656 75.273438 55.242188 75.3125 55.253906 C 75.394531 55.289062 75.476562 55.324219 75.558594 55.359375 C 75.664062 55.40625 75.769531 55.453125 75.871094 55.5 C 75.972656 55.546875 76.070312 55.59375 76.164062 55.640625 C 76.179688 55.644531 76.195312 55.652344 76.210938 55.660156 C 76.234375 55.671875 76.253906 55.683594 76.277344 55.691406 C 76.347656 55.726562 76.417969 55.765625 76.488281 55.800781 C 76.628906 55.875 76.757812 55.945312 76.878906 56.019531 C 76.90625 56.035156 76.933594 56.050781 76.960938 56.066406 C 77.050781 56.121094 77.136719 56.175781 77.21875 56.230469 C 77.21875 56.234375 77.21875 56.234375 77.21875 56.234375 C 77.246094 56.25 77.273438 56.269531 77.296875 56.285156 C 77.320312 56.304688 77.34375 56.320312 77.363281 56.335938 C 77.4375 56.390625 77.507812 56.445312 77.570312 56.5 C 77.59375 56.515625 77.613281 56.535156 77.632812 56.554688 C 77.640625 56.558594 77.648438 56.566406 77.65625 56.574219 C 77.683594 56.597656 77.710938 56.625 77.734375 56.648438 C 77.738281 56.652344 77.742188 56.65625 77.742188 56.660156 C 77.777344 56.695312 77.808594 56.730469 77.839844 56.761719 C 77.855469 56.78125 77.871094 56.796875 77.882812 56.816406 C 77.898438 56.835938 77.917969 56.859375 77.929688 56.878906 C 77.945312 56.898438 77.957031 56.917969 77.96875 56.933594 C 77.996094 56.976562 78.023438 57.023438 78.046875 57.074219 C 78.0625 57.105469 78.074219 57.140625 78.082031 57.175781 C 78.09375 57.207031 78.101562 57.242188 78.109375 57.277344 Z M 78.109375 57.277344 "/>
<use xlink:href="#surface5" mask="url(#mask0)"/>
</g>
</svg>
